<?xml version="1.0" encoding="utf-8" standalone="no"?>
<!DOCTYPE svg PUBLIC "-//W3C//DTD SVG 1.1//EN"
  "http://www.w3.org/Graphics/SVG/1.1/DTD/svg11.dtd">
<svg xmlns:xlink="http://www.w3.org/1999/xlink" width="1008pt" height="360pt" viewBox="0 0 1008 360" xmlns="http://www.w3.org/2000/svg" version="1.1">
 <metadata>
  <rdf:RDF xmlns:dc="http://purl.org/dc/elements/1.1/" xmlns:cc="http://creativecommons.org/ns#" xmlns:rdf="http://www.w3.org/1999/02/22-rdf-syntax-ns#">
   <cc:Work>
    <dc:type rdf:resource="http://purl.org/dc/dcmitype/StillImage"/>
    <dc:date>2026-09-21T10:31:42.639439</dc:date>
    <dc:format>image/svg+xml</dc:format>
    <dc:creator>
     <cc:Agent>
      <dc:title>Matplotlib v3.10.8, https://matplotlib.org/</dc:title>
     </cc:Agent>
    </dc:creator>
   </cc:Work>
  </rdf:RDF>
 </metadata>
 <defs>
  <style type="text/css">*{stroke-linejoin: round; stroke-linecap: butt}</style>
 </defs>
 <g id="figure_1">
  <g id="patch_1">
   <path d="M 0 360 
L 1008 360 
L 1008 0 
L 0 0 
z
" style="fill: #ffffff"/>
  </g>
  <g id="axes_1">
   <g id="patch_2">
    <path d="M 49.128365 304.247885 
L 320.810705 304.247885 
L 320.810705 38.118845 
L 49.128365 38.118845 
z
" style="fill: #ffffff"/>
   </g>
   <g id="patch_3">
    <path d="M 61.477562 304.247885 
L 67.810484 304.247885 
L 67.810484 304.247885 
L 61.477562 304.247885 
z
" clip-path="url(#pf81daa0c0c)" style="fill: #496d8c; stroke: #ffffff; stroke-width: 0.3; stroke-linejoin: miter"/>
   </g>
   <g id="patch_4">
    <path d="M 67.810484 304.247885 
L 74.143406 304.247885 
L 74.143406 304.247885 
L 67.810484 304.247885 
z
" clip-path="url(#pf81daa0c0c)" style="fill: #496d8c; stroke: #ffffff; stroke-width: 0.3; stroke-linejoin: miter"/>
   </g>
   <g id="patch_5">
    <path d="M 74.143406 304.247885 
L 80.476327 304.247885 
L 80.476327 304.005575 
L 74.143406 304.005575 
z
" clip-path="url(#pf81daa0c0c)" style="fill: #496d8c; stroke: #ffffff; stroke-width: 0.3; stroke-linejoin: miter"/>
   </g>
   <g id="patch_6">
    <path d="M 80.476327 304.247885 
L 86.809249 304.247885 
L 86.809249 303.520955 
L 80.476327 303.520955 
z
" clip-path="url(#pf81daa0c0c)" style="fill: #496d8c; stroke: #ffffff; stroke-width: 0.3; stroke-linejoin: miter"/>
   </g>
   <g id="patch_7">
    <path d="M 86.809249 304.247885 
L 93.142171 304.247885 
L 93.142171 302.067095 
L 86.809249 302.067095 
z
" clip-path="url(#pf81daa0c0c)" style="fill: #496d8c; stroke: #ffffff; stroke-width: 0.3; stroke-linejoin: miter"/>
   </g>
   <g id="patch_8">
    <path d="M 93.142171 304.247885 
L 99.475092 304.247885 
L 99.475092 302.309405 
L 93.142171 302.309405 
z
" clip-path="url(#pf81daa0c0c)" style="fill: #496d8c; stroke: #ffffff; stroke-width: 0.3; stroke-linejoin: miter"/>
   </g>
   <g id="patch_9">
    <path d="M 99.475092 304.247885 
L 105.808014 304.247885 
L 105.808014 299.886306 
L 99.475092 299.886306 
z
" clip-path="url(#pf81daa0c0c)" style="fill: #496d8c; stroke: #ffffff; stroke-width: 0.3; stroke-linejoin: miter"/>
   </g>
   <g id="patch_10">
    <path d="M 105.808014 304.247885 
L 112.140936 304.247885 
L 112.140936 300.855545 
L 105.808014 300.855545 
z
" clip-path="url(#pf81daa0c0c)" style="fill: #496d8c; stroke: #ffffff; stroke-width: 0.3; stroke-linejoin: miter"/>
   </g>
   <g id="patch_11">
    <path d="M 112.140936 304.247885 
L 118.473857 304.247885 
L 118.473857 300.613235 
L 112.140936 300.613235 
z
" clip-path="url(#pf81daa0c0c)" style="fill: #496d8c; stroke: #ffffff; stroke-width: 0.3; stroke-linejoin: miter"/>
   </g>
   <g id="patch_12">
    <path d="M 118.473857 304.247885 
L 124.806779 304.247885 
L 124.806779 298.917066 
L 118.473857 298.917066 
z
" clip-path="url(#pf81daa0c0c)" style="fill: #496d8c; stroke: #ffffff; stroke-width: 0.3; stroke-linejoin: miter"/>
   </g>
   <g id="patch_13">
    <path d="M 124.806779 304.247885 
L 131.139701 304.247885 
L 131.139701 300.128616 
L 124.806779 300.128616 
z
" clip-path="url(#pf81daa0c0c)" style="fill: #496d8c; stroke: #ffffff; stroke-width: 0.3; stroke-linejoin: miter"/>
   </g>
   <g id="patch_14">
    <path d="M 131.139701 304.247885 
L 137.472622 304.247885 
L 137.472622 300.370925 
L 131.139701 300.370925 
z
" clip-path="url(#pf81daa0c0c)" style="fill: #496d8c; stroke: #ffffff; stroke-width: 0.3; stroke-linejoin: miter"/>
   </g>
   <g id="patch_15">
    <path d="M 137.472622 304.247885 
L 143.805544 304.247885 
L 143.805544 300.855545 
L 137.472622 300.855545 
z
" clip-path="url(#pf81daa0c0c)" style="fill: #496d8c; stroke: #ffffff; stroke-width: 0.3; stroke-linejoin: miter"/>
   </g>
   <g id="patch_16">
    <path d="M 143.805544 304.247885 
L 150.138466 304.247885 
L 150.138466 298.917066 
L 143.805544 298.917066 
z
" clip-path="url(#pf81daa0c0c)" style="fill: #496d8c; stroke: #ffffff; stroke-width: 0.3; stroke-linejoin: miter"/>
   </g>
   <g id="patch_17">
    <path d="M 150.138466 304.247885 
L 156.471387 304.247885 
L 156.471387 296.493966 
L 150.138466 296.493966 
z
" clip-path="url(#pf81daa0c0c)" style="fill: #496d8c; stroke: #ffffff; stroke-width: 0.3; stroke-linejoin: miter"/>
   </g>
   <g id="patch_18">
    <path d="M 156.471387 304.247885 
L 162.804309 304.247885 
L 162.804309 296.009346 
L 156.471387 296.009346 
z
" clip-path="url(#pf81daa0c0c)" style="fill: #496d8c; stroke: #ffffff; stroke-width: 0.3; stroke-linejoin: miter"/>
   </g>
   <g id="patch_19">
    <path d="M 162.804309 304.247885 
L 169.137231 304.247885 
L 169.137231 294.070866 
L 162.804309 294.070866 
z
" clip-path="url(#pf81daa0c0c)" style="fill: #496d8c; stroke: #ffffff; stroke-width: 0.3; stroke-linejoin: miter"/>
   </g>
   <g id="patch_20">
    <path d="M 169.137231 304.247885 
L 175.470152 304.247885 
L 175.470152 293.343936 
L 169.137231 293.343936 
z
" clip-path="url(#pf81daa0c0c)" style="fill: #496d8c; stroke: #ffffff; stroke-width: 0.3; stroke-linejoin: miter"/>
   </g>
   <g id="patch_21">
    <path d="M 175.470152 304.247885 
L 181.803074 304.247885 
L 181.803074 238.581883 
L 175.470152 238.581883 
z
" clip-path="url(#pf81daa0c0c)" style="fill: #496d8c; stroke: #ffffff; stroke-width: 0.3; stroke-linejoin: miter"/>
   </g>
   <g id="patch_22">
    <path d="M 181.803074 304.247885 
L 188.135996 304.247885 
L 188.135996 183.0929 
L 181.803074 183.0929 
z
" clip-path="url(#pf81daa0c0c)" style="fill: #496d8c; stroke: #ffffff; stroke-width: 0.3; stroke-linejoin: miter"/>
   </g>
   <g id="patch_23">
    <path d="M 188.135996 304.247885 
L 194.468918 304.247885 
L 194.468918 122.273098 
L 188.135996 122.273098 
z
" clip-path="url(#pf81daa0c0c)" style="fill: #496d8c; stroke: #ffffff; stroke-width: 0.3; stroke-linejoin: miter"/>
   </g>
   <g id="patch_24">
    <path d="M 194.468918 304.247885 
L 200.801839 304.247885 
L 200.801839 188.908339 
L 194.468918 188.908339 
z
" clip-path="url(#pf81daa0c0c)" style="fill: #496d8c; stroke: #ffffff; stroke-width: 0.3; stroke-linejoin: miter"/>
   </g>
   <g id="patch_25">
    <path d="M 200.801839 304.247885 
L 207.134761 304.247885 
L 207.134761 159.104213 
L 200.801839 159.104213 
z
" clip-path="url(#pf81daa0c0c)" style="fill: #496d8c; stroke: #ffffff; stroke-width: 0.3; stroke-linejoin: miter"/>
   </g>
   <g id="patch_26">
    <path d="M 207.134761 304.247885 
L 213.467683 304.247885 
L 213.467683 138.507866 
L 207.134761 138.507866 
z
" clip-path="url(#pf81daa0c0c)" style="fill: #496d8c; stroke: #ffffff; stroke-width: 0.3; stroke-linejoin: miter"/>
   </g>
   <g id="patch_27">
    <path d="M 213.467683 304.247885 
L 219.800604 304.247885 
L 219.800604 54.183996 
L 213.467683 54.183996 
z
" clip-path="url(#pf81daa0c0c)" style="fill: #496d8c; stroke: #ffffff; stroke-width: 0.3; stroke-linejoin: miter"/>
   </g>
   <g id="patch_28">
    <path d="M 219.800604 304.247885 
L 226.133526 304.247885 
L 226.133526 88.107392 
L 219.800604 88.107392 
z
" clip-path="url(#pf81daa0c0c)" style="fill: #496d8c; stroke: #ffffff; stroke-width: 0.3; stroke-linejoin: miter"/>
   </g>
   <g id="patch_29">
    <path d="M 226.133526 304.247885 
L 232.466448 304.247885 
L 232.466448 50.791656 
L 226.133526 50.791656 
z
" clip-path="url(#pf81daa0c0c)" style="fill: #496d8c; stroke: #ffffff; stroke-width: 0.3; stroke-linejoin: miter"/>
   </g>
   <g id="patch_30">
    <path d="M 232.466448 304.247885 
L 238.799369 304.247885 
L 238.799369 125.180817 
L 232.466448 125.180817 
z
" clip-path="url(#pf81daa0c0c)" style="fill: #496d8c; stroke: #ffffff; stroke-width: 0.3; stroke-linejoin: miter"/>
   </g>
   <g id="patch_31">
    <path d="M 238.799369 304.247885 
L 245.132291 304.247885 
L 245.132291 142.869445 
L 238.799369 142.869445 
z
" clip-path="url(#pf81daa0c0c)" style="fill: #496d8c; stroke: #ffffff; stroke-width: 0.3; stroke-linejoin: miter"/>
   </g>
   <g id="patch_32">
    <path d="M 245.132291 304.247885 
L 251.465213 304.247885 
L 251.465213 232.281824 
L 245.132291 232.281824 
z
" clip-path="url(#pf81daa0c0c)" style="fill: #496d8c; stroke: #ffffff; stroke-width: 0.3; stroke-linejoin: miter"/>
   </g>
   <g id="patch_33">
    <path d="M 251.465213 304.247885 
L 257.798134 304.247885 
L 257.798134 249.485832 
L 251.465213 249.485832 
z
" clip-path="url(#pf81daa0c0c)" style="fill: #496d8c; stroke: #ffffff; stroke-width: 0.3; stroke-linejoin: miter"/>
   </g>
   <g id="patch_34">
    <path d="M 257.798134 304.247885 
L 264.131056 304.247885 
L 264.131056 274.201449 
L 257.798134 274.201449 
z
" clip-path="url(#pf81daa0c0c)" style="fill: #496d8c; stroke: #ffffff; stroke-width: 0.3; stroke-linejoin: miter"/>
   </g>
   <g id="patch_35">
    <path d="M 264.131056 304.247885 
L 270.463978 304.247885 
L 270.463978 278.320718 
L 264.131056 278.320718 
z
" clip-path="url(#pf81daa0c0c)" style="fill: #496d8c; stroke: #ffffff; stroke-width: 0.3; stroke-linejoin: miter"/>
   </g>
   <g id="patch_36">
    <path d="M 270.463978 304.247885 
L 276.796899 304.247885 
L 276.796899 290.678527 
L 270.463978 290.678527 
z
" clip-path="url(#pf81daa0c0c)" style="fill: #496d8c; stroke: #ffffff; stroke-width: 0.3; stroke-linejoin: miter"/>
   </g>
   <g id="patch_37">
    <path d="M 276.796899 304.247885 
L 283.129821 304.247885 
L 283.129821 295.767036 
L 276.796899 295.767036 
z
" clip-path="url(#pf81daa0c0c)" style="fill: #496d8c; stroke: #ffffff; stroke-width: 0.3; stroke-linejoin: miter"/>
   </g>
   <g id="patch_38">
    <path d="M 283.129821 304.247885 
L 289.462743 304.247885 
L 289.462743 302.067095 
L 283.129821 302.067095 
z
" clip-path="url(#pf81daa0c0c)" style="fill: #496d8c; stroke: #ffffff; stroke-width: 0.3; stroke-linejoin: miter"/>
   </g>
   <g id="patch_39">
    <path d="M 289.462743 304.247885 
L 295.795664 304.247885 
L 295.795664 303.036335 
L 289.462743 303.036335 
z
" clip-path="url(#pf81daa0c0c)" style="fill: #496d8c; stroke: #ffffff; stroke-width: 0.3; stroke-linejoin: miter"/>
   </g>
   <g id="patch_40">
    <path d="M 295.795664 304.247885 
L 302.128586 304.247885 
L 302.128586 304.247885 
L 295.795664 304.247885 
z
" clip-path="url(#pf81daa0c0c)" style="fill: #496d8c; stroke: #ffffff; stroke-width: 0.3; stroke-linejoin: miter"/>
   </g>
   <g id="patch_41">
    <path d="M 302.128586 304.247885 
L 308.461508 304.247885 
L 308.461508 304.247885 
L 302.128586 304.247885 
z
" clip-path="url(#pf81daa0c0c)" style="fill: #496d8c; stroke: #ffffff; stroke-width: 0.3; stroke-linejoin: miter"/>
   </g>
   <g id="matplotlib.axis_1">
    <g id="xtick_1">
     <g id="line2d_1">
      <defs>
       <path id="m901e66dd7a" d="M 0 0 
L 0 3.5 
" style="stroke: #000000; stroke-width: 0.8"/>
      </defs>
      <g>
       <use xlink:href="#m901e66dd7a" x="67.810484" y="304.247885" style="stroke: #000000; stroke-width: 0.8"/>
      </g>
     </g>
     <g id="text_1">
      <!-- −75 -->
      <g transform="translate(57.25814 318.846322) scale(0.1 -0.1)">
       <defs>
        <path id="DejaVuSans-2212" d="M 678 2272 
L 4684 2272 
L 4684 1741 
L 678 1741 
L 678 2272 
z
" transform="scale(0.015625)"/>
        <path id="DejaVuSans-37" d="M 525 4666 
L 3525 4666 
L 3525 4397 
L 1831 0 
L 1172 0 
L 2766 4134 
L 525 4134 
L 525 4666 
z
" transform="scale(0.015625)"/>
        <path id="DejaVuSans-35" d="M 691 4666 
L 3169 4666 
L 3169 4134 
L 1269 4134 
L 1269 2991 
Q 1406 3038 1543 3061 
Q 1681 3084 1819 3084 
Q 2600 3084 3056 2656 
Q 3513 2228 3513 1497 
Q 3513 744 3044 326 
Q 2575 -91 1722 -91 
Q 1428 -91 1123 -41 
Q 819 9 494 109 
L 494 744 
Q 775 591 1075 516 
Q 1375 441 1709 441 
Q 2250 441 2565 725 
Q 2881 1009 2881 1497 
Q 2881 1984 2565 2268 
Q 2250 2553 1709 2553 
Q 1456 2553 1204 2497 
Q 953 2441 691 2322 
L 691 4666 
z
" transform="scale(0.015625)"/>
       </defs>
       <use xlink:href="#DejaVuSans-2212"/>
       <use xlink:href="#DejaVuSans-37" transform="translate(83.789062 0)"/>
       <use xlink:href="#DejaVuSans-35" transform="translate(147.412109 0)"/>
      </g>
     </g>
    </g>
    <g id="xtick_2">
     <g id="line2d_2">
      <g>
       <use xlink:href="#m901e66dd7a" x="99.475092" y="304.247885" style="stroke: #000000; stroke-width: 0.8"/>
      </g>
     </g>
     <g id="text_2">
      <!-- −50 -->
      <g transform="translate(88.922749 318.846322) scale(0.1 -0.1)">
       <defs>
        <path id="DejaVuSans-30" d="M 2034 4250 
Q 1547 4250 1301 3770 
Q 1056 3291 1056 2328 
Q 1056 1369 1301 889 
Q 1547 409 2034 409 
Q 2525 409 2770 889 
Q 3016 1369 3016 2328 
Q 3016 3291 2770 3770 
Q 2525 4250 2034 4250 
z
M 2034 4750 
Q 2819 4750 3233 4129 
Q 3647 3509 3647 2328 
Q 3647 1150 3233 529 
Q 2819 -91 2034 -91 
Q 1250 -91 836 529 
Q 422 1150 422 2328 
Q 422 3509 836 4129 
Q 1250 4750 2034 4750 
z
" transform="scale(0.015625)"/>
       </defs>
       <use xlink:href="#DejaVuSans-2212"/>
       <use xlink:href="#DejaVuSans-35" transform="translate(83.789062 0)"/>
       <use xlink:href="#DejaVuSans-30" transform="translate(147.412109 0)"/>
      </g>
     </g>
    </g>
    <g id="xtick_3">
     <g id="line2d_3">
      <g>
       <use xlink:href="#m901e66dd7a" x="131.139701" y="304.247885" style="stroke: #000000; stroke-width: 0.8"/>
      </g>
     </g>
     <g id="text_3">
      <!-- −25 -->
      <g transform="translate(120.587357 318.846322) scale(0.1 -0.1)">
       <defs>
        <path id="DejaVuSans-32" d="M 1228 531 
L 3431 531 
L 3431 0 
L 469 0 
L 469 531 
Q 828 903 1448 1529 
Q 2069 2156 2228 2338 
Q 2531 2678 2651 2914 
Q 2772 3150 2772 3378 
Q 2772 3750 2511 3984 
Q 2250 4219 1831 4219 
Q 1534 4219 1204 4116 
Q 875 4013 500 3803 
L 500 4441 
Q 881 4594 1212 4672 
Q 1544 4750 1819 4750 
Q 2544 4750 2975 4387 
Q 3406 4025 3406 3419 
Q 3406 3131 3298 2873 
Q 3191 2616 2906 2266 
Q 2828 2175 2409 1742 
Q 1991 1309 1228 531 
z
" transform="scale(0.015625)"/>
       </defs>
       <use xlink:href="#DejaVuSans-2212"/>
       <use xlink:href="#DejaVuSans-32" transform="translate(83.789062 0)"/>
       <use xlink:href="#DejaVuSans-35" transform="translate(147.412109 0)"/>
      </g>
     </g>
    </g>
    <g id="xtick_4">
     <g id="line2d_4">
      <g>
       <use xlink:href="#m901e66dd7a" x="162.804309" y="304.247885" style="stroke: #000000; stroke-width: 0.8"/>
      </g>
     </g>
     <g id="text_4">
      <!-- 0 -->
      <g transform="translate(159.623059 318.846322) scale(0.1 -0.1)">
       <use xlink:href="#DejaVuSans-30"/>
      </g>
     </g>
    </g>
    <g id="xtick_5">
     <g id="line2d_5">
      <g>
       <use xlink:href="#m901e66dd7a" x="194.468918" y="304.247885" style="stroke: #000000; stroke-width: 0.8"/>
      </g>
     </g>
     <g id="text_5">
      <!-- 25 -->
      <g transform="translate(188.106418 318.846322) scale(0.1 -0.1)">
       <use xlink:href="#DejaVuSans-32"/>
       <use xlink:href="#DejaVuSans-35" transform="translate(63.623047 0)"/>
      </g>
     </g>
    </g>
    <g id="xtick_6">
     <g id="line2d_6">
      <g>
       <use xlink:href="#m901e66dd7a" x="226.133526" y="304.247885" style="stroke: #000000; stroke-width: 0.8"/>
      </g>
     </g>
     <g id="text_6">
      <!-- 50 -->
      <g transform="translate(219.771026 318.846322) scale(0.1 -0.1)">
       <use xlink:href="#DejaVuSans-35"/>
       <use xlink:href="#DejaVuSans-30" transform="translate(63.623047 0)"/>
      </g>
     </g>
    </g>
    <g id="xtick_7">
     <g id="line2d_7">
      <g>
       <use xlink:href="#m901e66dd7a" x="257.798134" y="304.247885" style="stroke: #000000; stroke-width: 0.8"/>
      </g>
     </g>
     <g id="text_7">
      <!-- 75 -->
      <g transform="translate(251.435634 318.846322) scale(0.1 -0.1)">
       <use xlink:href="#DejaVuSans-37"/>
       <use xlink:href="#DejaVuSans-35" transform="translate(63.623047 0)"/>
      </g>
     </g>
    </g>
    <g id="xtick_8">
     <g id="line2d_8">
      <g>
       <use xlink:href="#m901e66dd7a" x="289.462743" y="304.247885" style="stroke: #000000; stroke-width: 0.8"/>
      </g>
     </g>
     <g id="text_8">
      <!-- 100 -->
      <g transform="translate(279.918993 318.846322) scale(0.1 -0.1)">
       <defs>
        <path id="DejaVuSans-31" d="M 794 531 
L 1825 531 
L 1825 4091 
L 703 3866 
L 703 4441 
L 1819 4666 
L 2450 4666 
L 2450 531 
L 3481 531 
L 3481 0 
L 794 0 
L 794 531 
z
" transform="scale(0.015625)"/>
       </defs>
       <use xlink:href="#DejaVuSans-31"/>
       <use xlink:href="#DejaVuSans-30" transform="translate(63.623047 0)"/>
       <use xlink:href="#DejaVuSans-30" transform="translate(127.246094 0)"/>
      </g>
     </g>
    </g>
    <g id="text_9">
     <!-- Learned minus base evaluation (cp) -->
     <g transform="translate(95.14141 332.524448) scale(0.1 -0.1)">
      <defs>
       <path id="DejaVuSans-4c" d="M 628 4666 
L 1259 4666 
L 1259 531 
L 3531 531 
L 3531 0 
L 628 0 
L 628 4666 
z
" transform="scale(0.015625)"/>
       <path id="DejaVuSans-65" d="M 3597 1894 
L 3597 1613 
L 953 1613 
Q 991 1019 1311 708 
Q 1631 397 2203 397 
Q 2534 397 2845 478 
Q 3156 559 3463 722 
L 3463 178 
Q 3153 47 2828 -22 
Q 2503 -91 2169 -91 
Q 1331 -91 842 396 
Q 353 884 353 1716 
Q 353 2575 817 3079 
Q 1281 3584 2069 3584 
Q 2775 3584 3186 3129 
Q 3597 2675 3597 1894 
z
M 3022 2063 
Q 3016 2534 2758 2815 
Q 2500 3097 2075 3097 
Q 1594 3097 1305 2825 
Q 1016 2553 972 2059 
L 3022 2063 
z
" transform="scale(0.015625)"/>
       <path id="DejaVuSans-61" d="M 2194 1759 
Q 1497 1759 1228 1600 
Q 959 1441 959 1056 
Q 959 750 1161 570 
Q 1363 391 1709 391 
Q 2188 391 2477 730 
Q 2766 1069 2766 1631 
L 2766 1759 
L 2194 1759 
z
M 3341 1997 
L 3341 0 
L 2766 0 
L 2766 531 
Q 2569 213 2275 61 
Q 1981 -91 1556 -91 
Q 1019 -91 701 211 
Q 384 513 384 1019 
Q 384 1609 779 1909 
Q 1175 2209 1959 2209 
L 2766 2209 
L 2766 2266 
Q 2766 2663 2505 2880 
Q 2244 3097 1772 3097 
Q 1472 3097 1187 3025 
Q 903 2953 641 2809 
L 641 3341 
Q 956 3463 1253 3523 
Q 1550 3584 1831 3584 
Q 2591 3584 2966 3190 
Q 3341 2797 3341 1997 
z
" transform="scale(0.015625)"/>
       <path id="DejaVuSans-72" d="M 2631 2963 
Q 2534 3019 2420 3045 
Q 2306 3072 2169 3072 
Q 1681 3072 1420 2755 
Q 1159 2438 1159 1844 
L 1159 0 
L 581 0 
L 581 3500 
L 1159 3500 
L 1159 2956 
Q 1341 3275 1631 3429 
Q 1922 3584 2338 3584 
Q 2397 3584 2469 3576 
Q 2541 3569 2628 3553 
L 2631 2963 
z
" transform="scale(0.015625)"/>
       <path id="DejaVuSans-6e" d="M 3513 2113 
L 3513 0 
L 2938 0 
L 2938 2094 
Q 2938 2591 2744 2837 
Q 2550 3084 2163 3084 
Q 1697 3084 1428 2787 
Q 1159 2491 1159 1978 
L 1159 0 
L 581 0 
L 581 3500 
L 1159 3500 
L 1159 2956 
Q 1366 3272 1645 3428 
Q 1925 3584 2291 3584 
Q 2894 3584 3203 3211 
Q 3513 2838 3513 2113 
z
" transform="scale(0.015625)"/>
       <path id="DejaVuSans-64" d="M 2906 2969 
L 2906 4863 
L 3481 4863 
L 3481 0 
L 2906 0 
L 2906 525 
Q 2725 213 2448 61 
Q 2172 -91 1784 -91 
Q 1150 -91 751 415 
Q 353 922 353 1747 
Q 353 2572 751 3078 
Q 1150 3584 1784 3584 
Q 2172 3584 2448 3432 
Q 2725 3281 2906 2969 
z
M 947 1747 
Q 947 1113 1208 752 
Q 1469 391 1925 391 
Q 2381 391 2643 752 
Q 2906 1113 2906 1747 
Q 2906 2381 2643 2742 
Q 2381 3103 1925 3103 
Q 1469 3103 1208 2742 
Q 947 2381 947 1747 
z
" transform="scale(0.015625)"/>
       <path id="DejaVuSans-20" transform="scale(0.015625)"/>
       <path id="DejaVuSans-6d" d="M 3328 2828 
Q 3544 3216 3844 3400 
Q 4144 3584 4550 3584 
Q 5097 3584 5394 3201 
Q 5691 2819 5691 2113 
L 5691 0 
L 5113 0 
L 5113 2094 
Q 5113 2597 4934 2840 
Q 4756 3084 4391 3084 
Q 3944 3084 3684 2787 
Q 3425 2491 3425 1978 
L 3425 0 
L 2847 0 
L 2847 2094 
Q 2847 2600 2669 2842 
Q 2491 3084 2119 3084 
Q 1678 3084 1418 2786 
Q 1159 2488 1159 1978 
L 1159 0 
L 581 0 
L 581 3500 
L 1159 3500 
L 1159 2956 
Q 1356 3278 1631 3431 
Q 1906 3584 2284 3584 
Q 2666 3584 2933 3390 
Q 3200 3197 3328 2828 
z
" transform="scale(0.015625)"/>
       <path id="DejaVuSans-69" d="M 603 3500 
L 1178 3500 
L 1178 0 
L 603 0 
L 603 3500 
z
M 603 4863 
L 1178 4863 
L 1178 4134 
L 603 4134 
L 603 4863 
z
" transform="scale(0.015625)"/>
       <path id="DejaVuSans-75" d="M 544 1381 
L 544 3500 
L 1119 3500 
L 1119 1403 
Q 1119 906 1312 657 
Q 1506 409 1894 409 
Q 2359 409 2629 706 
Q 2900 1003 2900 1516 
L 2900 3500 
L 3475 3500 
L 3475 0 
L 2900 0 
L 2900 538 
Q 2691 219 2414 64 
Q 2138 -91 1772 -91 
Q 1169 -91 856 284 
Q 544 659 544 1381 
z
M 1991 3584 
L 1991 3584 
z
" transform="scale(0.015625)"/>
       <path id="DejaVuSans-73" d="M 2834 3397 
L 2834 2853 
Q 2591 2978 2328 3040 
Q 2066 3103 1784 3103 
Q 1356 3103 1142 2972 
Q 928 2841 928 2578 
Q 928 2378 1081 2264 
Q 1234 2150 1697 2047 
L 1894 2003 
Q 2506 1872 2764 1633 
Q 3022 1394 3022 966 
Q 3022 478 2636 193 
Q 2250 -91 1575 -91 
Q 1294 -91 989 -36 
Q 684 19 347 128 
L 347 722 
Q 666 556 975 473 
Q 1284 391 1588 391 
Q 1994 391 2212 530 
Q 2431 669 2431 922 
Q 2431 1156 2273 1281 
Q 2116 1406 1581 1522 
L 1381 1569 
Q 847 1681 609 1914 
Q 372 2147 372 2553 
Q 372 3047 722 3315 
Q 1072 3584 1716 3584 
Q 2034 3584 2315 3537 
Q 2597 3491 2834 3397 
z
" transform="scale(0.015625)"/>
       <path id="DejaVuSans-62" d="M 3116 1747 
Q 3116 2381 2855 2742 
Q 2594 3103 2138 3103 
Q 1681 3103 1420 2742 
Q 1159 2381 1159 1747 
Q 1159 1113 1420 752 
Q 1681 391 2138 391 
Q 2594 391 2855 752 
Q 3116 1113 3116 1747 
z
M 1159 2969 
Q 1341 3281 1617 3432 
Q 1894 3584 2278 3584 
Q 2916 3584 3314 3078 
Q 3713 2572 3713 1747 
Q 3713 922 3314 415 
Q 2916 -91 2278 -91 
Q 1894 -91 1617 61 
Q 1341 213 1159 525 
L 1159 0 
L 581 0 
L 581 4863 
L 1159 4863 
L 1159 2969 
z
" transform="scale(0.015625)"/>
       <path id="DejaVuSans-76" d="M 191 3500 
L 800 3500 
L 1894 563 
L 2988 3500 
L 3597 3500 
L 2284 0 
L 1503 0 
L 191 3500 
z
" transform="scale(0.015625)"/>
       <path id="DejaVuSans-6c" d="M 603 4863 
L 1178 4863 
L 1178 0 
L 603 0 
L 603 4863 
z
" transform="scale(0.015625)"/>
       <path id="DejaVuSans-74" d="M 1172 4494 
L 1172 3500 
L 2356 3500 
L 2356 3053 
L 1172 3053 
L 1172 1153 
Q 1172 725 1289 603 
Q 1406 481 1766 481 
L 2356 481 
L 2356 0 
L 1766 0 
Q 1100 0 847 248 
Q 594 497 594 1153 
L 594 3053 
L 172 3053 
L 172 3500 
L 594 3500 
L 594 4494 
L 1172 4494 
z
" transform="scale(0.015625)"/>
       <path id="DejaVuSans-6f" d="M 1959 3097 
Q 1497 3097 1228 2736 
Q 959 2375 959 1747 
Q 959 1119 1226 758 
Q 1494 397 1959 397 
Q 2419 397 2687 759 
Q 2956 1122 2956 1747 
Q 2956 2369 2687 2733 
Q 2419 3097 1959 3097 
z
M 1959 3584 
Q 2709 3584 3137 3096 
Q 3566 2609 3566 1747 
Q 3566 888 3137 398 
Q 2709 -91 1959 -91 
Q 1206 -91 779 398 
Q 353 888 353 1747 
Q 353 2609 779 3096 
Q 1206 3584 1959 3584 
z
" transform="scale(0.015625)"/>
       <path id="DejaVuSans-28" d="M 1984 4856 
Q 1566 4138 1362 3434 
Q 1159 2731 1159 2009 
Q 1159 1288 1364 580 
Q 1569 -128 1984 -844 
L 1484 -844 
Q 1016 -109 783 600 
Q 550 1309 550 2009 
Q 550 2706 781 3412 
Q 1013 4119 1484 4856 
L 1984 4856 
z
" transform="scale(0.015625)"/>
       <path id="DejaVuSans-63" d="M 3122 3366 
L 3122 2828 
Q 2878 2963 2633 3030 
Q 2388 3097 2138 3097 
Q 1578 3097 1268 2742 
Q 959 2388 959 1747 
Q 959 1106 1268 751 
Q 1578 397 2138 397 
Q 2388 397 2633 464 
Q 2878 531 3122 666 
L 3122 134 
Q 2881 22 2623 -34 
Q 2366 -91 2075 -91 
Q 1284 -91 818 406 
Q 353 903 353 1747 
Q 353 2603 823 3093 
Q 1294 3584 2113 3584 
Q 2378 3584 2631 3529 
Q 2884 3475 3122 3366 
z
" transform="scale(0.015625)"/>
       <path id="DejaVuSans-70" d="M 1159 525 
L 1159 -1331 
L 581 -1331 
L 581 3500 
L 1159 3500 
L 1159 2969 
Q 1341 3281 1617 3432 
Q 1894 3584 2278 3584 
Q 2916 3584 3314 3078 
Q 3713 2572 3713 1747 
Q 3713 922 3314 415 
Q 2916 -91 2278 -91 
Q 1894 -91 1617 61 
Q 1341 213 1159 525 
z
M 3116 1747 
Q 3116 2381 2855 2742 
Q 2594 3103 2138 3103 
Q 1681 3103 1420 2742 
Q 1159 2381 1159 1747 
Q 1159 1113 1420 752 
Q 1681 391 2138 391 
Q 2594 391 2855 752 
Q 3116 1113 3116 1747 
z
" transform="scale(0.015625)"/>
       <path id="DejaVuSans-29" d="M 513 4856 
L 1013 4856 
Q 1481 4119 1714 3412 
Q 1947 2706 1947 2009 
Q 1947 1309 1714 600 
Q 1481 -109 1013 -844 
L 513 -844 
Q 928 -128 1133 580 
Q 1338 1288 1338 2009 
Q 1338 2731 1133 3434 
Q 928 4138 513 4856 
z
" transform="scale(0.015625)"/>
      </defs>
      <use xlink:href="#DejaVuSans-4c"/>
      <use xlink:href="#DejaVuSans-65" transform="translate(53.962891 0)"/>
      <use xlink:href="#DejaVuSans-61" transform="translate(115.486328 0)"/>
      <use xlink:href="#DejaVuSans-72" transform="translate(176.765625 0)"/>
      <use xlink:href="#DejaVuSans-6e" transform="translate(216.128906 0)"/>
      <use xlink:href="#DejaVuSans-65" transform="translate(279.507812 0)"/>
      <use xlink:href="#DejaVuSans-64" transform="translate(341.03125 0)"/>
      <use xlink:href="#DejaVuSans-20" transform="translate(404.507812 0)"/>
      <use xlink:href="#DejaVuSans-6d" transform="translate(436.294922 0)"/>
      <use xlink:href="#DejaVuSans-69" transform="translate(533.707031 0)"/>
      <use xlink:href="#DejaVuSans-6e" transform="translate(561.490234 0)"/>
      <use xlink:href="#DejaVuSans-75" transform="translate(624.869141 0)"/>
      <use xlink:href="#DejaVuSans-73" transform="translate(688.248047 0)"/>
      <use xlink:href="#DejaVuSans-20" transform="translate(740.347656 0)"/>
      <use xlink:href="#DejaVuSans-62" transform="translate(772.134766 0)"/>
      <use xlink:href="#DejaVuSans-61" transform="translate(835.611328 0)"/>
      <use xlink:href="#DejaVuSans-73" transform="translate(896.890625 0)"/>
      <use xlink:href="#DejaVuSans-65" transform="translate(948.990234 0)"/>
      <use xlink:href="#DejaVuSans-20" transform="translate(1010.513672 0)"/>
      <use xlink:href="#DejaVuSans-65" transform="translate(1042.300781 0)"/>
      <use xlink:href="#DejaVuSans-76" transform="translate(1103.824219 0)"/>
      <use xlink:href="#DejaVuSans-61" transform="translate(1163.003906 0)"/>
      <use xlink:href="#DejaVuSans-6c" transform="translate(1224.283203 0)"/>
      <use xlink:href="#DejaVuSans-75" transform="translate(1252.066406 0)"/>
      <use xlink:href="#DejaVuSans-61" transform="translate(1315.445312 0)"/>
      <use xlink:href="#DejaVuSans-74" transform="translate(1376.724609 0)"/>
      <use xlink:href="#DejaVuSans-69" transform="translate(1415.933594 0)"/>
      <use xlink:href="#DejaVuSans-6f" transform="translate(1443.716797 0)"/>
      <use xlink:href="#DejaVuSans-6e" transform="translate(1504.898438 0)"/>
      <use xlink:href="#DejaVuSans-20" transform="translate(1568.277344 0)"/>
      <use xlink:href="#DejaVuSans-28" transform="translate(1600.064453 0)"/>
      <use xlink:href="#DejaVuSans-63" transform="translate(1639.078125 0)"/>
      <use xlink:href="#DejaVuSans-70" transform="translate(1694.058594 0)"/>
      <use xlink:href="#DejaVuSans-29" transform="translate(1757.535156 0)"/>
     </g>
    </g>
   </g>
   <g id="matplotlib.axis_2">
    <g id="ytick_1">
     <g id="line2d_9">
      <defs>
       <path id="m15a6b0b171" d="M 0 0 
L -3.5 0 
" style="stroke: #000000; stroke-width: 0.8"/>
      </defs>
      <g>
       <use xlink:href="#m15a6b0b171" x="49.128365" y="304.247885" style="stroke: #000000; stroke-width: 0.8"/>
      </g>
     </g>
     <g id="text_10">
      <!-- 0 -->
      <g transform="translate(35.765865 308.047104) scale(0.1 -0.1)">
       <use xlink:href="#DejaVuSans-30"/>
      </g>
     </g>
    </g>
    <g id="ytick_2">
     <g id="line2d_10">
      <g>
       <use xlink:href="#m15a6b0b171" x="49.128365" y="255.785891" style="stroke: #000000; stroke-width: 0.8"/>
      </g>
     </g>
     <g id="text_11">
      <!-- 200 -->
      <g transform="translate(23.040865 259.58511) scale(0.1 -0.1)">
       <use xlink:href="#DejaVuSans-32"/>
       <use xlink:href="#DejaVuSans-30" transform="translate(63.623047 0)"/>
       <use xlink:href="#DejaVuSans-30" transform="translate(127.246094 0)"/>
      </g>
     </g>
    </g>
    <g id="ytick_3">
     <g id="line2d_11">
      <g>
       <use xlink:href="#m15a6b0b171" x="49.128365" y="207.323897" style="stroke: #000000; stroke-width: 0.8"/>
      </g>
     </g>
     <g id="text_12">
      <!-- 400 -->
      <g transform="translate(23.040865 211.123116) scale(0.1 -0.1)">
       <defs>
        <path id="DejaVuSans-34" d="M 2419 4116 
L 825 1625 
L 2419 1625 
L 2419 4116 
z
M 2253 4666 
L 3047 4666 
L 3047 1625 
L 3713 1625 
L 3713 1100 
L 3047 1100 
L 3047 0 
L 2419 0 
L 2419 1100 
L 313 1100 
L 313 1709 
L 2253 4666 
z
" transform="scale(0.015625)"/>
       </defs>
       <use xlink:href="#DejaVuSans-34"/>
       <use xlink:href="#DejaVuSans-30" transform="translate(63.623047 0)"/>
       <use xlink:href="#DejaVuSans-30" transform="translate(127.246094 0)"/>
      </g>
     </g>
    </g>
    <g id="ytick_4">
     <g id="line2d_12">
      <g>
       <use xlink:href="#m15a6b0b171" x="49.128365" y="158.861903" style="stroke: #000000; stroke-width: 0.8"/>
      </g>
     </g>
     <g id="text_13">
      <!-- 600 -->
      <g transform="translate(23.040865 162.661122) scale(0.1 -0.1)">
       <defs>
        <path id="DejaVuSans-36" d="M 2113 2584 
Q 1688 2584 1439 2293 
Q 1191 2003 1191 1497 
Q 1191 994 1439 701 
Q 1688 409 2113 409 
Q 2538 409 2786 701 
Q 3034 994 3034 1497 
Q 3034 2003 2786 2293 
Q 2538 2584 2113 2584 
z
M 3366 4563 
L 3366 3988 
Q 3128 4100 2886 4159 
Q 2644 4219 2406 4219 
Q 1781 4219 1451 3797 
Q 1122 3375 1075 2522 
Q 1259 2794 1537 2939 
Q 1816 3084 2150 3084 
Q 2853 3084 3261 2657 
Q 3669 2231 3669 1497 
Q 3669 778 3244 343 
Q 2819 -91 2113 -91 
Q 1303 -91 875 529 
Q 447 1150 447 2328 
Q 447 3434 972 4092 
Q 1497 4750 2381 4750 
Q 2619 4750 2861 4703 
Q 3103 4656 3366 4563 
z
" transform="scale(0.015625)"/>
       </defs>
       <use xlink:href="#DejaVuSans-36"/>
       <use xlink:href="#DejaVuSans-30" transform="translate(63.623047 0)"/>
       <use xlink:href="#DejaVuSans-30" transform="translate(127.246094 0)"/>
      </g>
     </g>
    </g>
    <g id="ytick_5">
     <g id="line2d_13">
      <g>
       <use xlink:href="#m15a6b0b171" x="49.128365" y="110.399909" style="stroke: #000000; stroke-width: 0.8"/>
      </g>
     </g>
     <g id="text_14">
      <!-- 800 -->
      <g transform="translate(23.040865 114.199128) scale(0.1 -0.1)">
       <defs>
        <path id="DejaVuSans-38" d="M 2034 2216 
Q 1584 2216 1326 1975 
Q 1069 1734 1069 1313 
Q 1069 891 1326 650 
Q 1584 409 2034 409 
Q 2484 409 2743 651 
Q 3003 894 3003 1313 
Q 3003 1734 2745 1975 
Q 2488 2216 2034 2216 
z
M 1403 2484 
Q 997 2584 770 2862 
Q 544 3141 544 3541 
Q 544 4100 942 4425 
Q 1341 4750 2034 4750 
Q 2731 4750 3128 4425 
Q 3525 4100 3525 3541 
Q 3525 3141 3298 2862 
Q 3072 2584 2669 2484 
Q 3125 2378 3379 2068 
Q 3634 1759 3634 1313 
Q 3634 634 3220 271 
Q 2806 -91 2034 -91 
Q 1263 -91 848 271 
Q 434 634 434 1313 
Q 434 1759 690 2068 
Q 947 2378 1403 2484 
z
M 1172 3481 
Q 1172 3119 1398 2916 
Q 1625 2713 2034 2713 
Q 2441 2713 2670 2916 
Q 2900 3119 2900 3481 
Q 2900 3844 2670 4047 
Q 2441 4250 2034 4250 
Q 1625 4250 1398 4047 
Q 1172 3844 1172 3481 
z
" transform="scale(0.015625)"/>
       </defs>
       <use xlink:href="#DejaVuSans-38"/>
       <use xlink:href="#DejaVuSans-30" transform="translate(63.623047 0)"/>
       <use xlink:href="#DejaVuSans-30" transform="translate(127.246094 0)"/>
      </g>
     </g>
    </g>
    <g id="ytick_6">
     <g id="line2d_14">
      <g>
       <use xlink:href="#m15a6b0b171" x="49.128365" y="61.937915" style="stroke: #000000; stroke-width: 0.8"/>
      </g>
     </g>
     <g id="text_15">
      <!-- 1000 -->
      <g transform="translate(16.678365 65.737134) scale(0.1 -0.1)">
       <use xlink:href="#DejaVuSans-31"/>
       <use xlink:href="#DejaVuSans-30" transform="translate(63.623047 0)"/>
       <use xlink:href="#DejaVuSans-30" transform="translate(127.246094 0)"/>
       <use xlink:href="#DejaVuSans-30" transform="translate(190.869141 0)"/>
      </g>
     </g>
    </g>
    <g id="text_16">
     <!-- Positions (previous test set) -->
     <g transform="translate(10.598678 240.538834) rotate(-90) scale(0.1 -0.1)">
      <defs>
       <path id="DejaVuSans-50" d="M 1259 4147 
L 1259 2394 
L 2053 2394 
Q 2494 2394 2734 2622 
Q 2975 2850 2975 3272 
Q 2975 3691 2734 3919 
Q 2494 4147 2053 4147 
L 1259 4147 
z
M 628 4666 
L 2053 4666 
Q 2838 4666 3239 4311 
Q 3641 3956 3641 3272 
Q 3641 2581 3239 2228 
Q 2838 1875 2053 1875 
L 1259 1875 
L 1259 0 
L 628 0 
L 628 4666 
z
" transform="scale(0.015625)"/>
      </defs>
      <use xlink:href="#DejaVuSans-50"/>
      <use xlink:href="#DejaVuSans-6f" transform="translate(56.677734 0)"/>
      <use xlink:href="#DejaVuSans-73" transform="translate(117.859375 0)"/>
      <use xlink:href="#DejaVuSans-69" transform="translate(169.958984 0)"/>
      <use xlink:href="#DejaVuSans-74" transform="translate(197.742188 0)"/>
      <use xlink:href="#DejaVuSans-69" transform="translate(236.951172 0)"/>
      <use xlink:href="#DejaVuSans-6f" transform="translate(264.734375 0)"/>
      <use xlink:href="#DejaVuSans-6e" transform="translate(325.916016 0)"/>
      <use xlink:href="#DejaVuSans-73" transform="translate(389.294922 0)"/>
      <use xlink:href="#DejaVuSans-20" transform="translate(441.394531 0)"/>
      <use xlink:href="#DejaVuSans-28" transform="translate(473.181641 0)"/>
      <use xlink:href="#DejaVuSans-70" transform="translate(512.195312 0)"/>
      <use xlink:href="#DejaVuSans-72" transform="translate(575.671875 0)"/>
      <use xlink:href="#DejaVuSans-65" transform="translate(614.535156 0)"/>
      <use xlink:href="#DejaVuSans-76" transform="translate(676.058594 0)"/>
      <use xlink:href="#DejaVuSans-69" transform="translate(735.238281 0)"/>
      <use xlink:href="#DejaVuSans-6f" transform="translate(763.021484 0)"/>
      <use xlink:href="#DejaVuSans-75" transform="translate(824.203125 0)"/>
      <use xlink:href="#DejaVuSans-73" transform="translate(887.582031 0)"/>
      <use xlink:href="#DejaVuSans-20" transform="translate(939.681641 0)"/>
      <use xlink:href="#DejaVuSans-74" transform="translate(971.46875 0)"/>
      <use xlink:href="#DejaVuSans-65" transform="translate(1010.677734 0)"/>
      <use xlink:href="#DejaVuSans-73" transform="translate(1072.201172 0)"/>
      <use xlink:href="#DejaVuSans-74" transform="translate(1124.300781 0)"/>
      <use xlink:href="#DejaVuSans-20" transform="translate(1163.509766 0)"/>
      <use xlink:href="#DejaVuSans-73" transform="translate(1195.296875 0)"/>
      <use xlink:href="#DejaVuSans-65" transform="translate(1247.396484 0)"/>
      <use xlink:href="#DejaVuSans-74" transform="translate(1308.919922 0)"/>
      <use xlink:href="#DejaVuSans-29" transform="translate(1348.128906 0)"/>
     </g>
    </g>
   </g>
   <g id="line2d_15">
    <path d="M 213.467683 304.247885 
L 213.467683 38.118845 
" clip-path="url(#pf81daa0c0c)" style="fill: none; stroke-dasharray: 5.55,2.4; stroke-dashoffset: 0; stroke: #c0613a; stroke-width: 1.5"/>
   </g>
   <g id="patch_42">
    <path d="M 49.128365 304.247885 
L 49.128365 38.118845 
" style="fill: none; stroke: #000000; stroke-width: 0.8; stroke-linejoin: miter; stroke-linecap: square"/>
   </g>
   <g id="patch_43">
    <path d="M 49.128365 304.247885 
L 320.810705 304.247885 
" style="fill: none; stroke: #000000; stroke-width: 0.8; stroke-linejoin: miter; stroke-linecap: square"/>
   </g>
   <g id="text_17">
    <!-- A. Learned correction -->
    <g transform="translate(120.830473 32.118845) scale(0.12 -0.12)">
     <defs>
      <path id="DejaVuSans-41" d="M 2188 4044 
L 1331 1722 
L 3047 1722 
L 2188 4044 
z
M 1831 4666 
L 2547 4666 
L 4325 0 
L 3669 0 
L 3244 1197 
L 1141 1197 
L 716 0 
L 50 0 
L 1831 4666 
z
" transform="scale(0.015625)"/>
      <path id="DejaVuSans-2e" d="M 684 794 
L 1344 794 
L 1344 0 
L 684 0 
L 684 794 
z
" transform="scale(0.015625)"/>
     </defs>
     <use xlink:href="#DejaVuSans-41"/>
     <use xlink:href="#DejaVuSans-2e" transform="translate(66.658203 0)"/>
     <use xlink:href="#DejaVuSans-20" transform="translate(98.445312 0)"/>
     <use xlink:href="#DejaVuSans-4c" transform="translate(130.232422 0)"/>
     <use xlink:href="#DejaVuSans-65" transform="translate(184.195312 0)"/>
     <use xlink:href="#DejaVuSans-61" transform="translate(245.71875 0)"/>
     <use xlink:href="#DejaVuSans-72" transform="translate(306.998047 0)"/>
     <use xlink:href="#DejaVuSans-6e" transform="translate(346.361328 0)"/>
     <use xlink:href="#DejaVuSans-65" transform="translate(409.740234 0)"/>
     <use xlink:href="#DejaVuSans-64" transform="translate(471.263672 0)"/>
     <use xlink:href="#DejaVuSans-20" transform="translate(534.740234 0)"/>
     <use xlink:href="#DejaVuSans-63" transform="translate(566.527344 0)"/>
     <use xlink:href="#DejaVuSans-6f" transform="translate(621.507812 0)"/>
     <use xlink:href="#DejaVuSans-72" transform="translate(682.689453 0)"/>
     <use xlink:href="#DejaVuSans-72" transform="translate(722.052734 0)"/>
     <use xlink:href="#DejaVuSans-65" transform="translate(760.916016 0)"/>
     <use xlink:href="#DejaVuSans-63" transform="translate(822.439453 0)"/>
     <use xlink:href="#DejaVuSans-74" transform="translate(877.419922 0)"/>
     <use xlink:href="#DejaVuSans-69" transform="translate(916.628906 0)"/>
     <use xlink:href="#DejaVuSans-6f" transform="translate(944.412109 0)"/>
     <use xlink:href="#DejaVuSans-6e" transform="translate(1005.59375 0)"/>
    </g>
   </g>
   <g id="legend_1">
    <g id="line2d_16">
     <path d="M 58.128365 51.217283 
L 68.128365 51.217283 
L 78.128365 51.217283 
" style="fill: none; stroke-dasharray: 5.55,2.4; stroke-dashoffset: 0; stroke: #c0613a; stroke-width: 1.5"/>
    </g>
    <g id="text_18">
     <!-- Constant +40 cp -->
     <g transform="translate(86.128365 54.717283) scale(0.1 -0.1)">
      <defs>
       <path id="DejaVuSans-43" d="M 4122 4306 
L 4122 3641 
Q 3803 3938 3442 4084 
Q 3081 4231 2675 4231 
Q 1875 4231 1450 3742 
Q 1025 3253 1025 2328 
Q 1025 1406 1450 917 
Q 1875 428 2675 428 
Q 3081 428 3442 575 
Q 3803 722 4122 1019 
L 4122 359 
Q 3791 134 3420 21 
Q 3050 -91 2638 -91 
Q 1578 -91 968 557 
Q 359 1206 359 2328 
Q 359 3453 968 4101 
Q 1578 4750 2638 4750 
Q 3056 4750 3426 4639 
Q 3797 4528 4122 4306 
z
" transform="scale(0.015625)"/>
       <path id="DejaVuSans-2b" d="M 2944 4013 
L 2944 2272 
L 4684 2272 
L 4684 1741 
L 2944 1741 
L 2944 0 
L 2419 0 
L 2419 1741 
L 678 1741 
L 678 2272 
L 2419 2272 
L 2419 4013 
L 2944 4013 
z
" transform="scale(0.015625)"/>
      </defs>
      <use xlink:href="#DejaVuSans-43"/>
      <use xlink:href="#DejaVuSans-6f" transform="translate(69.824219 0)"/>
      <use xlink:href="#DejaVuSans-6e" transform="translate(131.005859 0)"/>
      <use xlink:href="#DejaVuSans-73" transform="translate(194.384766 0)"/>
      <use xlink:href="#DejaVuSans-74" transform="translate(246.484375 0)"/>
      <use xlink:href="#DejaVuSans-61" transform="translate(285.693359 0)"/>
      <use xlink:href="#DejaVuSans-6e" transform="translate(346.972656 0)"/>
      <use xlink:href="#DejaVuSans-74" transform="translate(410.351562 0)"/>
      <use xlink:href="#DejaVuSans-20" transform="translate(449.560547 0)"/>
      <use xlink:href="#DejaVuSans-2b" transform="translate(481.347656 0)"/>
      <use xlink:href="#DejaVuSans-34" transform="translate(565.136719 0)"/>
      <use xlink:href="#DejaVuSans-30" transform="translate(628.759766 0)"/>
      <use xlink:href="#DejaVuSans-20" transform="translate(692.382812 0)"/>
      <use xlink:href="#DejaVuSans-63" transform="translate(724.169922 0)"/>
      <use xlink:href="#DejaVuSans-70" transform="translate(779.150391 0)"/>
     </g>
    </g>
   </g>
  </g>
  <g id="axes_2">
   <g id="patch_44">
    <path d="M 408.786955 304.247885 
L 680.469295 304.247885 
L 680.469295 38.118845 
L 408.786955 38.118845 
z
" style="fill: #ffffff"/>
   </g>
   <g id="matplotlib.axis_3">
    <g id="xtick_9">
     <g id="line2d_17">
      <g>
       <use xlink:href="#m901e66dd7a" x="420.298207" y="304.247885" style="stroke: #000000; stroke-width: 0.8"/>
      </g>
     </g>
     <g id="text_19">
      <!-- −15.0 -->
      <g transform="translate(404.97555 318.846322) scale(0.1 -0.1)">
       <use xlink:href="#DejaVuSans-2212"/>
       <use xlink:href="#DejaVuSans-31" transform="translate(83.789062 0)"/>
       <use xlink:href="#DejaVuSans-35" transform="translate(147.412109 0)"/>
       <use xlink:href="#DejaVuSans-2e" transform="translate(211.035156 0)"/>
       <use xlink:href="#DejaVuSans-30" transform="translate(242.822266 0)"/>
      </g>
     </g>
    </g>
    <g id="xtick_10">
     <g id="line2d_18">
      <g>
       <use xlink:href="#m901e66dd7a" x="452.962717" y="304.247885" style="stroke: #000000; stroke-width: 0.8"/>
      </g>
     </g>
     <g id="text_20">
      <!-- −12.5 -->
      <g transform="translate(437.640061 318.846322) scale(0.1 -0.1)">
       <use xlink:href="#DejaVuSans-2212"/>
       <use xlink:href="#DejaVuSans-31" transform="translate(83.789062 0)"/>
       <use xlink:href="#DejaVuSans-32" transform="translate(147.412109 0)"/>
       <use xlink:href="#DejaVuSans-2e" transform="translate(211.035156 0)"/>
       <use xlink:href="#DejaVuSans-35" transform="translate(242.822266 0)"/>
      </g>
     </g>
    </g>
    <g id="xtick_11">
     <g id="line2d_19">
      <g>
       <use xlink:href="#m901e66dd7a" x="485.627227" y="304.247885" style="stroke: #000000; stroke-width: 0.8"/>
      </g>
     </g>
     <g id="text_21">
      <!-- −10.0 -->
      <g transform="translate(470.304571 318.846322) scale(0.1 -0.1)">
       <use xlink:href="#DejaVuSans-2212"/>
       <use xlink:href="#DejaVuSans-31" transform="translate(83.789062 0)"/>
       <use xlink:href="#DejaVuSans-30" transform="translate(147.412109 0)"/>
       <use xlink:href="#DejaVuSans-2e" transform="translate(211.035156 0)"/>
       <use xlink:href="#DejaVuSans-30" transform="translate(242.822266 0)"/>
      </g>
     </g>
    </g>
    <g id="xtick_12">
     <g id="line2d_20">
      <g>
       <use xlink:href="#m901e66dd7a" x="518.291737" y="304.247885" style="stroke: #000000; stroke-width: 0.8"/>
      </g>
     </g>
     <g id="text_22">
      <!-- −7.5 -->
      <g transform="translate(506.150331 318.846322) scale(0.1 -0.1)">
       <use xlink:href="#DejaVuSans-2212"/>
       <use xlink:href="#DejaVuSans-37" transform="translate(83.789062 0)"/>
       <use xlink:href="#DejaVuSans-2e" transform="translate(147.412109 0)"/>
       <use xlink:href="#DejaVuSans-35" transform="translate(179.199219 0)"/>
      </g>
     </g>
    </g>
    <g id="xtick_13">
     <g id="line2d_21">
      <g>
       <use xlink:href="#m901e66dd7a" x="550.956248" y="304.247885" style="stroke: #000000; stroke-width: 0.8"/>
      </g>
     </g>
     <g id="text_23">
      <!-- −5.0 -->
      <g transform="translate(538.814841 318.846322) scale(0.1 -0.1)">
       <use xlink:href="#DejaVuSans-2212"/>
       <use xlink:href="#DejaVuSans-35" transform="translate(83.789062 0)"/>
       <use xlink:href="#DejaVuSans-2e" transform="translate(147.412109 0)"/>
       <use xlink:href="#DejaVuSans-30" transform="translate(179.199219 0)"/>
      </g>
     </g>
    </g>
    <g id="xtick_14">
     <g id="line2d_22">
      <g>
       <use xlink:href="#m901e66dd7a" x="583.620758" y="304.247885" style="stroke: #000000; stroke-width: 0.8"/>
      </g>
     </g>
     <g id="text_24">
      <!-- −2.5 -->
      <g transform="translate(571.479352 318.846322) scale(0.1 -0.1)">
       <use xlink:href="#DejaVuSans-2212"/>
       <use xlink:href="#DejaVuSans-32" transform="translate(83.789062 0)"/>
       <use xlink:href="#DejaVuSans-2e" transform="translate(147.412109 0)"/>
       <use xlink:href="#DejaVuSans-35" transform="translate(179.199219 0)"/>
      </g>
     </g>
    </g>
    <g id="xtick_15">
     <g id="line2d_23">
      <g>
       <use xlink:href="#m901e66dd7a" x="616.285268" y="304.247885" style="stroke: #000000; stroke-width: 0.8"/>
      </g>
     </g>
     <g id="text_25">
      <!-- 0.0 -->
      <g transform="translate(608.333706 318.846322) scale(0.1 -0.1)">
       <use xlink:href="#DejaVuSans-30"/>
       <use xlink:href="#DejaVuSans-2e" transform="translate(63.623047 0)"/>
       <use xlink:href="#DejaVuSans-30" transform="translate(95.410156 0)"/>
      </g>
     </g>
    </g>
    <g id="xtick_16">
     <g id="line2d_24">
      <g>
       <use xlink:href="#m901e66dd7a" x="648.949779" y="304.247885" style="stroke: #000000; stroke-width: 0.8"/>
      </g>
     </g>
     <g id="text_26">
      <!-- 2.5 -->
      <g transform="translate(640.998216 318.846322) scale(0.1 -0.1)">
       <use xlink:href="#DejaVuSans-32"/>
       <use xlink:href="#DejaVuSans-2e" transform="translate(63.623047 0)"/>
       <use xlink:href="#DejaVuSans-35" transform="translate(95.410156 0)"/>
      </g>
     </g>
    </g>
    <g id="text_27">
     <!-- Difference in mean candidate gap (cp) -->
     <g transform="translate(448.0375 332.524448) scale(0.1 -0.1)">
      <defs>
       <path id="DejaVuSans-44" d="M 1259 4147 
L 1259 519 
L 2022 519 
Q 2988 519 3436 956 
Q 3884 1394 3884 2338 
Q 3884 3275 3436 3711 
Q 2988 4147 2022 4147 
L 1259 4147 
z
M 628 4666 
L 1925 4666 
Q 3281 4666 3915 4102 
Q 4550 3538 4550 2338 
Q 4550 1131 3912 565 
Q 3275 0 1925 0 
L 628 0 
L 628 4666 
z
" transform="scale(0.015625)"/>
       <path id="DejaVuSans-66" d="M 2375 4863 
L 2375 4384 
L 1825 4384 
Q 1516 4384 1395 4259 
Q 1275 4134 1275 3809 
L 1275 3500 
L 2222 3500 
L 2222 3053 
L 1275 3053 
L 1275 0 
L 697 0 
L 697 3053 
L 147 3053 
L 147 3500 
L 697 3500 
L 697 3744 
Q 697 4328 969 4595 
Q 1241 4863 1831 4863 
L 2375 4863 
z
" transform="scale(0.015625)"/>
       <path id="DejaVuSans-67" d="M 2906 1791 
Q 2906 2416 2648 2759 
Q 2391 3103 1925 3103 
Q 1463 3103 1205 2759 
Q 947 2416 947 1791 
Q 947 1169 1205 825 
Q 1463 481 1925 481 
Q 2391 481 2648 825 
Q 2906 1169 2906 1791 
z
M 3481 434 
Q 3481 -459 3084 -895 
Q 2688 -1331 1869 -1331 
Q 1566 -1331 1297 -1286 
Q 1028 -1241 775 -1147 
L 775 -588 
Q 1028 -725 1275 -790 
Q 1522 -856 1778 -856 
Q 2344 -856 2625 -561 
Q 2906 -266 2906 331 
L 2906 616 
Q 2728 306 2450 153 
Q 2172 0 1784 0 
Q 1141 0 747 490 
Q 353 981 353 1791 
Q 353 2603 747 3093 
Q 1141 3584 1784 3584 
Q 2172 3584 2450 3431 
Q 2728 3278 2906 2969 
L 2906 3500 
L 3481 3500 
L 3481 434 
z
" transform="scale(0.015625)"/>
      </defs>
      <use xlink:href="#DejaVuSans-44"/>
      <use xlink:href="#DejaVuSans-69" transform="translate(77.001953 0)"/>
      <use xlink:href="#DejaVuSans-66" transform="translate(104.785156 0)"/>
      <use xlink:href="#DejaVuSans-66" transform="translate(139.990234 0)"/>
      <use xlink:href="#DejaVuSans-65" transform="translate(175.195312 0)"/>
      <use xlink:href="#DejaVuSans-72" transform="translate(236.71875 0)"/>
      <use xlink:href="#DejaVuSans-65" transform="translate(275.582031 0)"/>
      <use xlink:href="#DejaVuSans-6e" transform="translate(337.105469 0)"/>
      <use xlink:href="#DejaVuSans-63" transform="translate(400.484375 0)"/>
      <use xlink:href="#DejaVuSans-65" transform="translate(455.464844 0)"/>
      <use xlink:href="#DejaVuSans-20" transform="translate(516.988281 0)"/>
      <use xlink:href="#DejaVuSans-69" transform="translate(548.775391 0)"/>
      <use xlink:href="#DejaVuSans-6e" transform="translate(576.558594 0)"/>
      <use xlink:href="#DejaVuSans-20" transform="translate(639.9375 0)"/>
      <use xlink:href="#DejaVuSans-6d" transform="translate(671.724609 0)"/>
      <use xlink:href="#DejaVuSans-65" transform="translate(769.136719 0)"/>
      <use xlink:href="#DejaVuSans-61" transform="translate(830.660156 0)"/>
      <use xlink:href="#DejaVuSans-6e" transform="translate(891.939453 0)"/>
      <use xlink:href="#DejaVuSans-20" transform="translate(955.318359 0)"/>
      <use xlink:href="#DejaVuSans-63" transform="translate(987.105469 0)"/>
      <use xlink:href="#DejaVuSans-61" transform="translate(1042.085938 0)"/>
      <use xlink:href="#DejaVuSans-6e" transform="translate(1103.365234 0)"/>
      <use xlink:href="#DejaVuSans-64" transform="translate(1166.744141 0)"/>
      <use xlink:href="#DejaVuSans-69" transform="translate(1230.220703 0)"/>
      <use xlink:href="#DejaVuSans-64" transform="translate(1258.003906 0)"/>
      <use xlink:href="#DejaVuSans-61" transform="translate(1321.480469 0)"/>
      <use xlink:href="#DejaVuSans-74" transform="translate(1382.759766 0)"/>
      <use xlink:href="#DejaVuSans-65" transform="translate(1421.96875 0)"/>
      <use xlink:href="#DejaVuSans-20" transform="translate(1483.492188 0)"/>
      <use xlink:href="#DejaVuSans-67" transform="translate(1515.279297 0)"/>
      <use xlink:href="#DejaVuSans-61" transform="translate(1578.755859 0)"/>
      <use xlink:href="#DejaVuSans-70" transform="translate(1640.035156 0)"/>
      <use xlink:href="#DejaVuSans-20" transform="translate(1703.511719 0)"/>
      <use xlink:href="#DejaVuSans-28" transform="translate(1735.298828 0)"/>
      <use xlink:href="#DejaVuSans-63" transform="translate(1774.3125 0)"/>
      <use xlink:href="#DejaVuSans-70" transform="translate(1829.292969 0)"/>
      <use xlink:href="#DejaVuSans-29" transform="translate(1892.769531 0)"/>
     </g>
     <!-- Lower is better; paired 95% bootstrap CI -->
     <g transform="translate(443.121094 343.72226) scale(0.1 -0.1)">
      <defs>
       <path id="DejaVuSans-77" d="M 269 3500 
L 844 3500 
L 1563 769 
L 2278 3500 
L 2956 3500 
L 3675 769 
L 4391 3500 
L 4966 3500 
L 4050 0 
L 3372 0 
L 2619 2869 
L 1863 0 
L 1184 0 
L 269 3500 
z
" transform="scale(0.015625)"/>
       <path id="DejaVuSans-3b" d="M 750 3309 
L 1409 3309 
L 1409 2516 
L 750 2516 
L 750 3309 
z
M 750 794 
L 1409 794 
L 1409 256 
L 897 -744 
L 494 -744 
L 750 256 
L 750 794 
z
" transform="scale(0.015625)"/>
       <path id="DejaVuSans-39" d="M 703 97 
L 703 672 
Q 941 559 1184 500 
Q 1428 441 1663 441 
Q 2288 441 2617 861 
Q 2947 1281 2994 2138 
Q 2813 1869 2534 1725 
Q 2256 1581 1919 1581 
Q 1219 1581 811 2004 
Q 403 2428 403 3163 
Q 403 3881 828 4315 
Q 1253 4750 1959 4750 
Q 2769 4750 3195 4129 
Q 3622 3509 3622 2328 
Q 3622 1225 3098 567 
Q 2575 -91 1691 -91 
Q 1453 -91 1209 -44 
Q 966 3 703 97 
z
M 1959 2075 
Q 2384 2075 2632 2365 
Q 2881 2656 2881 3163 
Q 2881 3666 2632 3958 
Q 2384 4250 1959 4250 
Q 1534 4250 1286 3958 
Q 1038 3666 1038 3163 
Q 1038 2656 1286 2365 
Q 1534 2075 1959 2075 
z
" transform="scale(0.015625)"/>
       <path id="DejaVuSans-25" d="M 4653 2053 
Q 4381 2053 4226 1822 
Q 4072 1591 4072 1178 
Q 4072 772 4226 539 
Q 4381 306 4653 306 
Q 4919 306 5073 539 
Q 5228 772 5228 1178 
Q 5228 1588 5073 1820 
Q 4919 2053 4653 2053 
z
M 4653 2450 
Q 5147 2450 5437 2106 
Q 5728 1763 5728 1178 
Q 5728 594 5436 251 
Q 5144 -91 4653 -91 
Q 4153 -91 3862 251 
Q 3572 594 3572 1178 
Q 3572 1766 3864 2108 
Q 4156 2450 4653 2450 
z
M 1428 4353 
Q 1159 4353 1004 4120 
Q 850 3888 850 3481 
Q 850 3069 1003 2837 
Q 1156 2606 1428 2606 
Q 1700 2606 1854 2837 
Q 2009 3069 2009 3481 
Q 2009 3884 1853 4118 
Q 1697 4353 1428 4353 
z
M 4250 4750 
L 4750 4750 
L 1831 -91 
L 1331 -91 
L 4250 4750 
z
M 1428 4750 
Q 1922 4750 2215 4408 
Q 2509 4066 2509 3481 
Q 2509 2891 2217 2550 
Q 1925 2209 1428 2209 
Q 931 2209 642 2551 
Q 353 2894 353 3481 
Q 353 4063 643 4406 
Q 934 4750 1428 4750 
z
" transform="scale(0.015625)"/>
       <path id="DejaVuSans-49" d="M 628 4666 
L 1259 4666 
L 1259 0 
L 628 0 
L 628 4666 
z
" transform="scale(0.015625)"/>
      </defs>
      <use xlink:href="#DejaVuSans-4c"/>
      <use xlink:href="#DejaVuSans-6f" transform="translate(53.962891 0)"/>
      <use xlink:href="#DejaVuSans-77" transform="translate(115.144531 0)"/>
      <use xlink:href="#DejaVuSans-65" transform="translate(196.931641 0)"/>
      <use xlink:href="#DejaVuSans-72" transform="translate(258.455078 0)"/>
      <use xlink:href="#DejaVuSans-20" transform="translate(299.568359 0)"/>
      <use xlink:href="#DejaVuSans-69" transform="translate(331.355469 0)"/>
      <use xlink:href="#DejaVuSans-73" transform="translate(359.138672 0)"/>
      <use xlink:href="#DejaVuSans-20" transform="translate(411.238281 0)"/>
      <use xlink:href="#DejaVuSans-62" transform="translate(443.025391 0)"/>
      <use xlink:href="#DejaVuSans-65" transform="translate(506.501953 0)"/>
      <use xlink:href="#DejaVuSans-74" transform="translate(568.025391 0)"/>
      <use xlink:href="#DejaVuSans-74" transform="translate(607.234375 0)"/>
      <use xlink:href="#DejaVuSans-65" transform="translate(646.443359 0)"/>
      <use xlink:href="#DejaVuSans-72" transform="translate(707.966797 0)"/>
      <use xlink:href="#DejaVuSans-3b" transform="translate(749.080078 0)"/>
      <use xlink:href="#DejaVuSans-20" transform="translate(782.771484 0)"/>
      <use xlink:href="#DejaVuSans-70" transform="translate(814.558594 0)"/>
      <use xlink:href="#DejaVuSans-61" transform="translate(878.035156 0)"/>
      <use xlink:href="#DejaVuSans-69" transform="translate(939.314453 0)"/>
      <use xlink:href="#DejaVuSans-72" transform="translate(967.097656 0)"/>
      <use xlink:href="#DejaVuSans-65" transform="translate(1005.960938 0)"/>
      <use xlink:href="#DejaVuSans-64" transform="translate(1067.484375 0)"/>
      <use xlink:href="#DejaVuSans-20" transform="translate(1130.960938 0)"/>
      <use xlink:href="#DejaVuSans-39" transform="translate(1162.748047 0)"/>
      <use xlink:href="#DejaVuSans-35" transform="translate(1226.371094 0)"/>
      <use xlink:href="#DejaVuSans-25" transform="translate(1289.994141 0)"/>
      <use xlink:href="#DejaVuSans-20" transform="translate(1385.013672 0)"/>
      <use xlink:href="#DejaVuSans-62" transform="translate(1416.800781 0)"/>
      <use xlink:href="#DejaVuSans-6f" transform="translate(1480.277344 0)"/>
      <use xlink:href="#DejaVuSans-6f" transform="translate(1541.458984 0)"/>
      <use xlink:href="#DejaVuSans-74" transform="translate(1602.640625 0)"/>
      <use xlink:href="#DejaVuSans-73" transform="translate(1641.849609 0)"/>
      <use xlink:href="#DejaVuSans-74" transform="translate(1693.949219 0)"/>
      <use xlink:href="#DejaVuSans-72" transform="translate(1733.158203 0)"/>
      <use xlink:href="#DejaVuSans-61" transform="translate(1774.271484 0)"/>
      <use xlink:href="#DejaVuSans-70" transform="translate(1835.550781 0)"/>
      <use xlink:href="#DejaVuSans-20" transform="translate(1899.027344 0)"/>
      <use xlink:href="#DejaVuSans-43" transform="translate(1930.814453 0)"/>
      <use xlink:href="#DejaVuSans-49" transform="translate(2000.638672 0)"/>
     </g>
     <!-- 12,000 nodes; 62 positions; 16 trajectories -->
     <g transform="translate(437.160938 354.920073) scale(0.1 -0.1)">
      <defs>
       <path id="DejaVuSans-2c" d="M 750 794 
L 1409 794 
L 1409 256 
L 897 -744 
L 494 -744 
L 750 256 
L 750 794 
z
" transform="scale(0.015625)"/>
       <path id="DejaVuSans-6a" d="M 603 3500 
L 1178 3500 
L 1178 -63 
Q 1178 -731 923 -1031 
Q 669 -1331 103 -1331 
L -116 -1331 
L -116 -844 
L 38 -844 
Q 366 -844 484 -692 
Q 603 -541 603 -63 
L 603 3500 
z
M 603 4863 
L 1178 4863 
L 1178 4134 
L 603 4134 
L 603 4863 
z
" transform="scale(0.015625)"/>
      </defs>
      <use xlink:href="#DejaVuSans-31"/>
      <use xlink:href="#DejaVuSans-32" transform="translate(63.623047 0)"/>
      <use xlink:href="#DejaVuSans-2c" transform="translate(127.246094 0)"/>
      <use xlink:href="#DejaVuSans-30" transform="translate(159.033203 0)"/>
      <use xlink:href="#DejaVuSans-30" transform="translate(222.65625 0)"/>
      <use xlink:href="#DejaVuSans-30" transform="translate(286.279297 0)"/>
      <use xlink:href="#DejaVuSans-20" transform="translate(349.902344 0)"/>
      <use xlink:href="#DejaVuSans-6e" transform="translate(381.689453 0)"/>
      <use xlink:href="#DejaVuSans-6f" transform="translate(445.068359 0)"/>
      <use xlink:href="#DejaVuSans-64" transform="translate(506.25 0)"/>
      <use xlink:href="#DejaVuSans-65" transform="translate(569.726562 0)"/>
      <use xlink:href="#DejaVuSans-73" transform="translate(631.25 0)"/>
      <use xlink:href="#DejaVuSans-3b" transform="translate(683.349609 0)"/>
      <use xlink:href="#DejaVuSans-20" transform="translate(717.041016 0)"/>
      <use xlink:href="#DejaVuSans-36" transform="translate(748.828125 0)"/>
      <use xlink:href="#DejaVuSans-32" transform="translate(812.451172 0)"/>
      <use xlink:href="#DejaVuSans-20" transform="translate(876.074219 0)"/>
      <use xlink:href="#DejaVuSans-70" transform="translate(907.861328 0)"/>
      <use xlink:href="#DejaVuSans-6f" transform="translate(971.337891 0)"/>
      <use xlink:href="#DejaVuSans-73" transform="translate(1032.519531 0)"/>
      <use xlink:href="#DejaVuSans-69" transform="translate(1084.619141 0)"/>
      <use xlink:href="#DejaVuSans-74" transform="translate(1112.402344 0)"/>
      <use xlink:href="#DejaVuSans-69" transform="translate(1151.611328 0)"/>
      <use xlink:href="#DejaVuSans-6f" transform="translate(1179.394531 0)"/>
      <use xlink:href="#DejaVuSans-6e" transform="translate(1240.576172 0)"/>
      <use xlink:href="#DejaVuSans-73" transform="translate(1303.955078 0)"/>
      <use xlink:href="#DejaVuSans-3b" transform="translate(1356.054688 0)"/>
      <use xlink:href="#DejaVuSans-20" transform="translate(1389.746094 0)"/>
      <use xlink:href="#DejaVuSans-31" transform="translate(1421.533203 0)"/>
      <use xlink:href="#DejaVuSans-36" transform="translate(1485.15625 0)"/>
      <use xlink:href="#DejaVuSans-20" transform="translate(1548.779297 0)"/>
      <use xlink:href="#DejaVuSans-74" transform="translate(1580.566406 0)"/>
      <use xlink:href="#DejaVuSans-72" transform="translate(1619.775391 0)"/>
      <use xlink:href="#DejaVuSans-61" transform="translate(1660.888672 0)"/>
      <use xlink:href="#DejaVuSans-6a" transform="translate(1722.167969 0)"/>
      <use xlink:href="#DejaVuSans-65" transform="translate(1749.951172 0)"/>
      <use xlink:href="#DejaVuSans-63" transform="translate(1811.474609 0)"/>
      <use xlink:href="#DejaVuSans-74" transform="translate(1866.455078 0)"/>
      <use xlink:href="#DejaVuSans-6f" transform="translate(1905.664062 0)"/>
      <use xlink:href="#DejaVuSans-72" transform="translate(1966.845703 0)"/>
      <use xlink:href="#DejaVuSans-69" transform="translate(2007.958984 0)"/>
      <use xlink:href="#DejaVuSans-65" transform="translate(2035.742188 0)"/>
      <use xlink:href="#DejaVuSans-73" transform="translate(2097.265625 0)"/>
     </g>
    </g>
   </g>
   <g id="matplotlib.axis_4">
    <g id="ytick_7">
     <g id="line2d_25">
      <g>
       <use xlink:href="#m15a6b0b171" x="408.786955" y="50.21562" style="stroke: #000000; stroke-width: 0.8"/>
      </g>
     </g>
     <g id="text_28">
      <!-- Learned - base -->
      <g transform="translate(327.530705 54.014838) scale(0.1 -0.1)">
       <defs>
        <path id="DejaVuSans-2d" d="M 313 2009 
L 1997 2009 
L 1997 1497 
L 313 1497 
L 313 2009 
z
" transform="scale(0.015625)"/>
       </defs>
       <use xlink:href="#DejaVuSans-4c"/>
       <use xlink:href="#DejaVuSans-65" transform="translate(53.962891 0)"/>
       <use xlink:href="#DejaVuSans-61" transform="translate(115.486328 0)"/>
       <use xlink:href="#DejaVuSans-72" transform="translate(176.765625 0)"/>
       <use xlink:href="#DejaVuSans-6e" transform="translate(216.128906 0)"/>
       <use xlink:href="#DejaVuSans-65" transform="translate(279.507812 0)"/>
       <use xlink:href="#DejaVuSans-64" transform="translate(341.03125 0)"/>
       <use xlink:href="#DejaVuSans-20" transform="translate(404.507812 0)"/>
       <use xlink:href="#DejaVuSans-2d" transform="translate(436.294922 0)"/>
       <use xlink:href="#DejaVuSans-20" transform="translate(472.378906 0)"/>
       <use xlink:href="#DejaVuSans-62" transform="translate(504.166016 0)"/>
       <use xlink:href="#DejaVuSans-61" transform="translate(567.642578 0)"/>
       <use xlink:href="#DejaVuSans-73" transform="translate(628.921875 0)"/>
       <use xlink:href="#DejaVuSans-65" transform="translate(681.021484 0)"/>
      </g>
     </g>
    </g>
    <g id="ytick_8">
     <g id="line2d_26">
      <g>
       <use xlink:href="#m15a6b0b171" x="408.786955" y="171.183365" style="stroke: #000000; stroke-width: 0.8"/>
      </g>
     </g>
     <g id="text_29">
      <!-- +40 - base -->
      <g transform="translate(346.879143 174.982584) scale(0.1 -0.1)">
       <use xlink:href="#DejaVuSans-2b"/>
       <use xlink:href="#DejaVuSans-34" transform="translate(83.789062 0)"/>
       <use xlink:href="#DejaVuSans-30" transform="translate(147.412109 0)"/>
       <use xlink:href="#DejaVuSans-20" transform="translate(211.035156 0)"/>
       <use xlink:href="#DejaVuSans-2d" transform="translate(242.822266 0)"/>
       <use xlink:href="#DejaVuSans-20" transform="translate(278.90625 0)"/>
       <use xlink:href="#DejaVuSans-62" transform="translate(310.693359 0)"/>
       <use xlink:href="#DejaVuSans-61" transform="translate(374.169922 0)"/>
       <use xlink:href="#DejaVuSans-73" transform="translate(435.449219 0)"/>
       <use xlink:href="#DejaVuSans-65" transform="translate(487.548828 0)"/>
      </g>
     </g>
    </g>
    <g id="ytick_9">
     <g id="line2d_27">
      <g>
       <use xlink:href="#m15a6b0b171" x="408.786955" y="292.15111" style="stroke: #000000; stroke-width: 0.8"/>
      </g>
     </g>
     <g id="text_30">
      <!-- Learned - +40 -->
      <g transform="translate(330.26508 295.950329) scale(0.1 -0.1)">
       <use xlink:href="#DejaVuSans-4c"/>
       <use xlink:href="#DejaVuSans-65" transform="translate(53.962891 0)"/>
       <use xlink:href="#DejaVuSans-61" transform="translate(115.486328 0)"/>
       <use xlink:href="#DejaVuSans-72" transform="translate(176.765625 0)"/>
       <use xlink:href="#DejaVuSans-6e" transform="translate(216.128906 0)"/>
       <use xlink:href="#DejaVuSans-65" transform="translate(279.507812 0)"/>
       <use xlink:href="#DejaVuSans-64" transform="translate(341.03125 0)"/>
       <use xlink:href="#DejaVuSans-20" transform="translate(404.507812 0)"/>
       <use xlink:href="#DejaVuSans-2d" transform="translate(436.294922 0)"/>
       <use xlink:href="#DejaVuSans-20" transform="translate(472.378906 0)"/>
       <use xlink:href="#DejaVuSans-2b" transform="translate(504.166016 0)"/>
       <use xlink:href="#DejaVuSans-34" transform="translate(587.955078 0)"/>
       <use xlink:href="#DejaVuSans-30" transform="translate(651.578125 0)"/>
      </g>
     </g>
    </g>
   </g>
   <g id="LineCollection_1">
    <path d="M 421.136152 50.21562 
L 650.090444 50.21562 
" clip-path="url(#p7de093912b)" style="fill: none; stroke: #496d8c; stroke-width: 1.5"/>
   </g>
   <g id="line2d_28">
    <defs>
     <path id="m116e309062" d="M 0 4 
L 0 -4 
" style="stroke: #496d8c"/>
    </defs>
    <g clip-path="url(#p7de093912b)">
     <use xlink:href="#m116e309062" x="421.136152" y="50.21562" style="fill: #496d8c; stroke: #496d8c"/>
    </g>
   </g>
   <g id="line2d_29">
    <g clip-path="url(#p7de093912b)">
     <use xlink:href="#m116e309062" x="650.090444" y="50.21562" style="fill: #496d8c; stroke: #496d8c"/>
    </g>
   </g>
   <g id="LineCollection_2">
    <path d="M 523.958176 171.183365 
L 668.120098 171.183365 
" clip-path="url(#p7de093912b)" style="fill: none; stroke: #496d8c; stroke-width: 1.5"/>
   </g>
   <g id="line2d_30">
    <g clip-path="url(#p7de093912b)">
     <use xlink:href="#m116e309062" x="523.958176" y="171.183365" style="fill: #496d8c; stroke: #496d8c"/>
    </g>
   </g>
   <g id="line2d_31">
    <g clip-path="url(#p7de093912b)">
     <use xlink:href="#m116e309062" x="668.120098" y="171.183365" style="fill: #496d8c; stroke: #496d8c"/>
    </g>
   </g>
   <g id="LineCollection_3">
    <path d="M 454.783362 292.15111 
L 642.416877 292.15111 
" clip-path="url(#p7de093912b)" style="fill: none; stroke: #496d8c; stroke-width: 1.5"/>
   </g>
   <g id="line2d_32">
    <g clip-path="url(#p7de093912b)">
     <use xlink:href="#m116e309062" x="454.783362" y="292.15111" style="fill: #496d8c; stroke: #496d8c"/>
    </g>
   </g>
   <g id="line2d_33">
    <g clip-path="url(#p7de093912b)">
     <use xlink:href="#m116e309062" x="642.416877" y="292.15111" style="fill: #496d8c; stroke: #496d8c"/>
    </g>
   </g>
   <g id="line2d_34">
    <path d="M 616.285268 304.247885 
L 616.285268 38.118845 
" clip-path="url(#p7de093912b)" style="fill: none; stroke-dasharray: 5.55,2.4; stroke-dashoffset: 0; stroke: #808080; stroke-width: 1.5"/>
   </g>
   <g id="line2d_35">
    <defs>
     <path id="m1814dd41e0" d="M 0 3 
C 0.795609 3 1.55874 2.683901 2.12132 2.12132 
C 2.683901 1.55874 3 0.795609 3 0 
C 3 -0.795609 2.683901 -1.55874 2.12132 -2.12132 
C 1.55874 -2.683901 0.795609 -3 0 -3 
C -0.795609 -3 -1.55874 -2.683901 -2.12132 -2.12132 
C -2.683901 -1.55874 -3 -0.795609 -3 0 
C -3 0.795609 -2.683901 1.55874 -2.12132 2.12132 
C -1.55874 2.683901 -0.795609 3 0 3 
z
" style="stroke: #496d8c"/>
    </defs>
    <g clip-path="url(#p7de093912b)">
     <use xlink:href="#m1814dd41e0" x="545.47704" y="50.21562" style="fill: #496d8c; stroke: #496d8c"/>
    </g>
   </g>
   <g id="line2d_36">
    <g clip-path="url(#p7de093912b)">
     <use xlink:href="#m1814dd41e0" x="593.736219" y="171.183365" style="fill: #496d8c; stroke: #496d8c"/>
    </g>
   </g>
   <g id="line2d_37">
    <g clip-path="url(#p7de093912b)">
     <use xlink:href="#m1814dd41e0" x="568.026089" y="292.15111" style="fill: #496d8c; stroke: #496d8c"/>
    </g>
   </g>
   <g id="patch_45">
    <path d="M 408.786955 304.247885 
L 408.786955 38.118845 
" style="fill: none; stroke: #000000; stroke-width: 0.8; stroke-linejoin: miter; stroke-linecap: square"/>
   </g>
   <g id="patch_46">
    <path d="M 408.786955 304.247885 
L 680.469295 304.247885 
" style="fill: none; stroke: #000000; stroke-width: 0.8; stroke-linejoin: miter; stroke-linecap: square"/>
   </g>
   <g id="text_31">
    <!-- B. New-position choice quality -->
    <g transform="translate(453.91 32.118845) scale(0.12 -0.12)">
     <defs>
      <path id="DejaVuSans-42" d="M 1259 2228 
L 1259 519 
L 2272 519 
Q 2781 519 3026 730 
Q 3272 941 3272 1375 
Q 3272 1813 3026 2020 
Q 2781 2228 2272 2228 
L 1259 2228 
z
M 1259 4147 
L 1259 2741 
L 2194 2741 
Q 2656 2741 2882 2914 
Q 3109 3088 3109 3444 
Q 3109 3797 2882 3972 
Q 2656 4147 2194 4147 
L 1259 4147 
z
M 628 4666 
L 2241 4666 
Q 2963 4666 3353 4366 
Q 3744 4066 3744 3513 
Q 3744 3084 3544 2831 
Q 3344 2578 2956 2516 
Q 3422 2416 3680 2098 
Q 3938 1781 3938 1306 
Q 3938 681 3513 340 
Q 3088 0 2303 0 
L 628 0 
L 628 4666 
z
" transform="scale(0.015625)"/>
      <path id="DejaVuSans-4e" d="M 628 4666 
L 1478 4666 
L 3547 763 
L 3547 4666 
L 4159 4666 
L 4159 0 
L 3309 0 
L 1241 3903 
L 1241 0 
L 628 0 
L 628 4666 
z
" transform="scale(0.015625)"/>
      <path id="DejaVuSans-68" d="M 3513 2113 
L 3513 0 
L 2938 0 
L 2938 2094 
Q 2938 2591 2744 2837 
Q 2550 3084 2163 3084 
Q 1697 3084 1428 2787 
Q 1159 2491 1159 1978 
L 1159 0 
L 581 0 
L 581 4863 
L 1159 4863 
L 1159 2956 
Q 1366 3272 1645 3428 
Q 1925 3584 2291 3584 
Q 2894 3584 3203 3211 
Q 3513 2838 3513 2113 
z
" transform="scale(0.015625)"/>
      <path id="DejaVuSans-71" d="M 947 1747 
Q 947 1113 1208 752 
Q 1469 391 1925 391 
Q 2381 391 2643 752 
Q 2906 1113 2906 1747 
Q 2906 2381 2643 2742 
Q 2381 3103 1925 3103 
Q 1469 3103 1208 2742 
Q 947 2381 947 1747 
z
M 2906 525 
Q 2725 213 2448 61 
Q 2172 -91 1784 -91 
Q 1150 -91 751 415 
Q 353 922 353 1747 
Q 353 2572 751 3078 
Q 1150 3584 1784 3584 
Q 2172 3584 2448 3432 
Q 2725 3281 2906 2969 
L 2906 3500 
L 3481 3500 
L 3481 -1331 
L 2906 -1331 
L 2906 525 
z
" transform="scale(0.015625)"/>
      <path id="DejaVuSans-79" d="M 2059 -325 
Q 1816 -950 1584 -1140 
Q 1353 -1331 966 -1331 
L 506 -1331 
L 506 -850 
L 844 -850 
Q 1081 -850 1212 -737 
Q 1344 -625 1503 -206 
L 1606 56 
L 191 3500 
L 800 3500 
L 1894 763 
L 2988 3500 
L 3597 3500 
L 2059 -325 
z
" transform="scale(0.015625)"/>
     </defs>
     <use xlink:href="#DejaVuSans-42"/>
     <use xlink:href="#DejaVuSans-2e" transform="translate(68.603516 0)"/>
     <use xlink:href="#DejaVuSans-20" transform="translate(100.390625 0)"/>
     <use xlink:href="#DejaVuSans-4e" transform="translate(132.177734 0)"/>
     <use xlink:href="#DejaVuSans-65" transform="translate(206.982422 0)"/>
     <use xlink:href="#DejaVuSans-77" transform="translate(268.505859 0)"/>
     <use xlink:href="#DejaVuSans-2d" transform="translate(350.292969 0)"/>
     <use xlink:href="#DejaVuSans-70" transform="translate(386.376953 0)"/>
     <use xlink:href="#DejaVuSans-6f" transform="translate(449.853516 0)"/>
     <use xlink:href="#DejaVuSans-73" transform="translate(511.035156 0)"/>
     <use xlink:href="#DejaVuSans-69" transform="translate(563.134766 0)"/>
     <use xlink:href="#DejaVuSans-74" transform="translate(590.917969 0)"/>
     <use xlink:href="#DejaVuSans-69" transform="translate(630.126953 0)"/>
     <use xlink:href="#DejaVuSans-6f" transform="translate(657.910156 0)"/>
     <use xlink:href="#DejaVuSans-6e" transform="translate(719.091797 0)"/>
     <use xlink:href="#DejaVuSans-20" transform="translate(782.470703 0)"/>
     <use xlink:href="#DejaVuSans-63" transform="translate(814.257812 0)"/>
     <use xlink:href="#DejaVuSans-68" transform="translate(869.238281 0)"/>
     <use xlink:href="#DejaVuSans-6f" transform="translate(932.617188 0)"/>
     <use xlink:href="#DejaVuSans-69" transform="translate(993.798828 0)"/>
     <use xlink:href="#DejaVuSans-63" transform="translate(1021.582031 0)"/>
     <use xlink:href="#DejaVuSans-65" transform="translate(1076.5625 0)"/>
     <use xlink:href="#DejaVuSans-20" transform="translate(1138.085938 0)"/>
     <use xlink:href="#DejaVuSans-71" transform="translate(1169.873047 0)"/>
     <use xlink:href="#DejaVuSans-75" transform="translate(1233.349609 0)"/>
     <use xlink:href="#DejaVuSans-61" transform="translate(1296.728516 0)"/>
     <use xlink:href="#DejaVuSans-6c" transform="translate(1358.007812 0)"/>
     <use xlink:href="#DejaVuSans-69" transform="translate(1385.791016 0)"/>
     <use xlink:href="#DejaVuSans-74" transform="translate(1413.574219 0)"/>
     <use xlink:href="#DejaVuSans-79" transform="translate(1452.783203 0)"/>
    </g>
   </g>
  </g>
  <g id="axes_3">
   <g id="patch_47">
    <path d="M 733.31742 304.247885 
L 1004.99976 304.247885 
L 1004.99976 38.118845 
L 733.31742 38.118845 
z
" style="fill: #ffffff"/>
   </g>
   <g id="patch_48">
    <path d="M 745.666617 304.247885 
L 838.285597 304.247885 
L 838.285597 82.473685 
L 745.666617 82.473685 
z
" clip-path="url(#pce281b7087)" style="fill: #9ba8b4"/>
   </g>
   <g id="patch_49">
    <path d="M 900.031583 304.247885 
L 992.650563 304.247885 
L 992.650563 265.71048 
L 900.031583 265.71048 
z
" clip-path="url(#pce281b7087)" style="fill: #468376"/>
   </g>
   <g id="matplotlib.axis_5">
    <g id="xtick_17">
     <g id="line2d_38">
      <g>
       <use xlink:href="#m901e66dd7a" x="791.976107" y="304.247885" style="stroke: #000000; stroke-width: 0.8"/>
      </g>
     </g>
     <g id="text_32">
      <!-- First legal -->
      <g transform="translate(767.77142 318.846322) scale(0.1 -0.1)">
       <defs>
        <path id="DejaVuSans-46" d="M 628 4666 
L 3309 4666 
L 3309 4134 
L 1259 4134 
L 1259 2759 
L 3109 2759 
L 3109 2228 
L 1259 2228 
L 1259 0 
L 628 0 
L 628 4666 
z
" transform="scale(0.015625)"/>
       </defs>
       <use xlink:href="#DejaVuSans-46"/>
       <use xlink:href="#DejaVuSans-69" transform="translate(50.269531 0)"/>
       <use xlink:href="#DejaVuSans-72" transform="translate(78.052734 0)"/>
       <use xlink:href="#DejaVuSans-73" transform="translate(119.166016 0)"/>
       <use xlink:href="#DejaVuSans-74" transform="translate(171.265625 0)"/>
       <use xlink:href="#DejaVuSans-20" transform="translate(210.474609 0)"/>
       <use xlink:href="#DejaVuSans-6c" transform="translate(242.261719 0)"/>
       <use xlink:href="#DejaVuSans-65" transform="translate(270.044922 0)"/>
       <use xlink:href="#DejaVuSans-67" transform="translate(331.568359 0)"/>
       <use xlink:href="#DejaVuSans-61" transform="translate(395.044922 0)"/>
       <use xlink:href="#DejaVuSans-6c" transform="translate(456.324219 0)"/>
      </g>
     </g>
    </g>
    <g id="xtick_18">
     <g id="line2d_39">
      <g>
       <use xlink:href="#m901e66dd7a" x="946.341073" y="304.247885" style="stroke: #000000; stroke-width: 0.8"/>
      </g>
     </g>
     <g id="text_33">
      <!-- Completed child -->
      <g transform="translate(905.609823 318.846322) scale(0.1 -0.1)">
       <use xlink:href="#DejaVuSans-43"/>
       <use xlink:href="#DejaVuSans-6f" transform="translate(69.824219 0)"/>
       <use xlink:href="#DejaVuSans-6d" transform="translate(131.005859 0)"/>
       <use xlink:href="#DejaVuSans-70" transform="translate(228.417969 0)"/>
       <use xlink:href="#DejaVuSans-6c" transform="translate(291.894531 0)"/>
       <use xlink:href="#DejaVuSans-65" transform="translate(319.677734 0)"/>
       <use xlink:href="#DejaVuSans-74" transform="translate(381.201172 0)"/>
       <use xlink:href="#DejaVuSans-65" transform="translate(420.410156 0)"/>
       <use xlink:href="#DejaVuSans-64" transform="translate(481.933594 0)"/>
       <use xlink:href="#DejaVuSans-20" transform="translate(545.410156 0)"/>
       <use xlink:href="#DejaVuSans-63" transform="translate(577.197266 0)"/>
       <use xlink:href="#DejaVuSans-68" transform="translate(632.177734 0)"/>
       <use xlink:href="#DejaVuSans-69" transform="translate(695.556641 0)"/>
       <use xlink:href="#DejaVuSans-6c" transform="translate(723.339844 0)"/>
       <use xlink:href="#DejaVuSans-64" transform="translate(751.123047 0)"/>
      </g>
     </g>
    </g>
   </g>
   <g id="matplotlib.axis_6">
    <g id="ytick_10">
     <g id="line2d_40">
      <g>
       <use xlink:href="#m15a6b0b171" x="733.31742" y="304.247885" style="stroke: #000000; stroke-width: 0.8"/>
      </g>
     </g>
     <g id="text_34">
      <!-- 0 -->
      <g transform="translate(719.95492 308.047104) scale(0.1 -0.1)">
       <use xlink:href="#DejaVuSans-30"/>
      </g>
     </g>
    </g>
    <g id="ytick_11">
     <g id="line2d_41">
      <g>
       <use xlink:href="#m15a6b0b171" x="733.31742" y="271.147258" style="stroke: #000000; stroke-width: 0.8"/>
      </g>
     </g>
     <g id="text_35">
      <!-- 200 -->
      <g transform="translate(707.22992 274.946477) scale(0.1 -0.1)">
       <use xlink:href="#DejaVuSans-32"/>
       <use xlink:href="#DejaVuSans-30" transform="translate(63.623047 0)"/>
       <use xlink:href="#DejaVuSans-30" transform="translate(127.246094 0)"/>
      </g>
     </g>
    </g>
    <g id="ytick_12">
     <g id="line2d_42">
      <g>
       <use xlink:href="#m15a6b0b171" x="733.31742" y="238.046631" style="stroke: #000000; stroke-width: 0.8"/>
      </g>
     </g>
     <g id="text_36">
      <!-- 400 -->
      <g transform="translate(707.22992 241.84585) scale(0.1 -0.1)">
       <use xlink:href="#DejaVuSans-34"/>
       <use xlink:href="#DejaVuSans-30" transform="translate(63.623047 0)"/>
       <use xlink:href="#DejaVuSans-30" transform="translate(127.246094 0)"/>
      </g>
     </g>
    </g>
    <g id="ytick_13">
     <g id="line2d_43">
      <g>
       <use xlink:href="#m15a6b0b171" x="733.31742" y="204.946004" style="stroke: #000000; stroke-width: 0.8"/>
      </g>
     </g>
     <g id="text_37">
      <!-- 600 -->
      <g transform="translate(707.22992 208.745223) scale(0.1 -0.1)">
       <use xlink:href="#DejaVuSans-36"/>
       <use xlink:href="#DejaVuSans-30" transform="translate(63.623047 0)"/>
       <use xlink:href="#DejaVuSans-30" transform="translate(127.246094 0)"/>
      </g>
     </g>
    </g>
    <g id="ytick_14">
     <g id="line2d_44">
      <g>
       <use xlink:href="#m15a6b0b171" x="733.31742" y="171.845378" style="stroke: #000000; stroke-width: 0.8"/>
      </g>
     </g>
     <g id="text_38">
      <!-- 800 -->
      <g transform="translate(707.22992 175.644596) scale(0.1 -0.1)">
       <use xlink:href="#DejaVuSans-38"/>
       <use xlink:href="#DejaVuSans-30" transform="translate(63.623047 0)"/>
       <use xlink:href="#DejaVuSans-30" transform="translate(127.246094 0)"/>
      </g>
     </g>
    </g>
    <g id="ytick_15">
     <g id="line2d_45">
      <g>
       <use xlink:href="#m15a6b0b171" x="733.31742" y="138.744751" style="stroke: #000000; stroke-width: 0.8"/>
      </g>
     </g>
     <g id="text_39">
      <!-- 1000 -->
      <g transform="translate(700.86742 142.543969) scale(0.1 -0.1)">
       <use xlink:href="#DejaVuSans-31"/>
       <use xlink:href="#DejaVuSans-30" transform="translate(63.623047 0)"/>
       <use xlink:href="#DejaVuSans-30" transform="translate(127.246094 0)"/>
       <use xlink:href="#DejaVuSans-30" transform="translate(190.869141 0)"/>
      </g>
     </g>
    </g>
    <g id="ytick_16">
     <g id="line2d_46">
      <g>
       <use xlink:href="#m15a6b0b171" x="733.31742" y="105.644124" style="stroke: #000000; stroke-width: 0.8"/>
      </g>
     </g>
     <g id="text_40">
      <!-- 1200 -->
      <g transform="translate(700.86742 109.443343) scale(0.1 -0.1)">
       <use xlink:href="#DejaVuSans-31"/>
       <use xlink:href="#DejaVuSans-32" transform="translate(63.623047 0)"/>
       <use xlink:href="#DejaVuSans-30" transform="translate(127.246094 0)"/>
       <use xlink:href="#DejaVuSans-30" transform="translate(190.869141 0)"/>
      </g>
     </g>
    </g>
    <g id="ytick_17">
     <g id="line2d_47">
      <g>
       <use xlink:href="#m15a6b0b171" x="733.31742" y="72.543497" style="stroke: #000000; stroke-width: 0.8"/>
      </g>
     </g>
     <g id="text_41">
      <!-- 1400 -->
      <g transform="translate(700.86742 76.342716) scale(0.1 -0.1)">
       <use xlink:href="#DejaVuSans-31"/>
       <use xlink:href="#DejaVuSans-34" transform="translate(63.623047 0)"/>
       <use xlink:href="#DejaVuSans-30" transform="translate(127.246094 0)"/>
       <use xlink:href="#DejaVuSans-30" transform="translate(190.869141 0)"/>
      </g>
     </g>
    </g>
    <g id="ytick_18">
     <g id="line2d_48">
      <g>
       <use xlink:href="#m15a6b0b171" x="733.31742" y="39.44287" style="stroke: #000000; stroke-width: 0.8"/>
      </g>
     </g>
     <g id="text_42">
      <!-- 1600 -->
      <g transform="translate(700.86742 43.242089) scale(0.1 -0.1)">
       <use xlink:href="#DejaVuSans-31"/>
       <use xlink:href="#DejaVuSans-36" transform="translate(63.623047 0)"/>
       <use xlink:href="#DejaVuSans-30" transform="translate(127.246094 0)"/>
       <use xlink:href="#DejaVuSans-30" transform="translate(190.869141 0)"/>
      </g>
     </g>
    </g>
    <g id="text_43">
     <!-- Mean teacher candidate gap (cp) -->
     <g transform="translate(694.787732 254.371646) rotate(-90) scale(0.1 -0.1)">
      <defs>
       <path id="DejaVuSans-4d" d="M 628 4666 
L 1569 4666 
L 2759 1491 
L 3956 4666 
L 4897 4666 
L 4897 0 
L 4281 0 
L 4281 4097 
L 3078 897 
L 2444 897 
L 1241 4097 
L 1241 0 
L 628 0 
L 628 4666 
z
" transform="scale(0.015625)"/>
      </defs>
      <use xlink:href="#DejaVuSans-4d"/>
      <use xlink:href="#DejaVuSans-65" transform="translate(86.279297 0)"/>
      <use xlink:href="#DejaVuSans-61" transform="translate(147.802734 0)"/>
      <use xlink:href="#DejaVuSans-6e" transform="translate(209.082031 0)"/>
      <use xlink:href="#DejaVuSans-20" transform="translate(272.460938 0)"/>
      <use xlink:href="#DejaVuSans-74" transform="translate(304.248047 0)"/>
      <use xlink:href="#DejaVuSans-65" transform="translate(343.457031 0)"/>
      <use xlink:href="#DejaVuSans-61" transform="translate(404.980469 0)"/>
      <use xlink:href="#DejaVuSans-63" transform="translate(466.259766 0)"/>
      <use xlink:href="#DejaVuSans-68" transform="translate(521.240234 0)"/>
      <use xlink:href="#DejaVuSans-65" transform="translate(584.619141 0)"/>
      <use xlink:href="#DejaVuSans-72" transform="translate(646.142578 0)"/>
      <use xlink:href="#DejaVuSans-20" transform="translate(687.255859 0)"/>
      <use xlink:href="#DejaVuSans-63" transform="translate(719.042969 0)"/>
      <use xlink:href="#DejaVuSans-61" transform="translate(774.023438 0)"/>
      <use xlink:href="#DejaVuSans-6e" transform="translate(835.302734 0)"/>
      <use xlink:href="#DejaVuSans-64" transform="translate(898.681641 0)"/>
      <use xlink:href="#DejaVuSans-69" transform="translate(962.158203 0)"/>
      <use xlink:href="#DejaVuSans-64" transform="translate(989.941406 0)"/>
      <use xlink:href="#DejaVuSans-61" transform="translate(1053.417969 0)"/>
      <use xlink:href="#DejaVuSans-74" transform="translate(1114.697266 0)"/>
      <use xlink:href="#DejaVuSans-65" transform="translate(1153.90625 0)"/>
      <use xlink:href="#DejaVuSans-20" transform="translate(1215.429688 0)"/>
      <use xlink:href="#DejaVuSans-67" transform="translate(1247.216797 0)"/>
      <use xlink:href="#DejaVuSans-61" transform="translate(1310.693359 0)"/>
      <use xlink:href="#DejaVuSans-70" transform="translate(1371.972656 0)"/>
      <use xlink:href="#DejaVuSans-20" transform="translate(1435.449219 0)"/>
      <use xlink:href="#DejaVuSans-28" transform="translate(1467.236328 0)"/>
      <use xlink:href="#DejaVuSans-63" transform="translate(1506.25 0)"/>
      <use xlink:href="#DejaVuSans-70" transform="translate(1561.230469 0)"/>
      <use xlink:href="#DejaVuSans-29" transform="translate(1624.707031 0)"/>
     </g>
    </g>
   </g>
   <g id="patch_50">
    <path d="M 733.31742 304.247885 
L 733.31742 38.118845 
" style="fill: none; stroke: #000000; stroke-width: 0.8; stroke-linejoin: miter; stroke-linecap: square"/>
   </g>
   <g id="patch_51">
    <path d="M 733.31742 304.247885 
L 1004.99976 304.247885 
" style="fill: none; stroke: #000000; stroke-width: 0.8; stroke-linejoin: miter; stroke-linecap: square"/>
   </g>
   <g id="text_44">
    <!-- 1340.00 -->
    <g transform="translate(771.299545 77.508591) scale(0.1 -0.1)">
     <defs>
      <path id="DejaVuSans-33" d="M 2597 2516 
Q 3050 2419 3304 2112 
Q 3559 1806 3559 1356 
Q 3559 666 3084 287 
Q 2609 -91 1734 -91 
Q 1441 -91 1130 -33 
Q 819 25 488 141 
L 488 750 
Q 750 597 1062 519 
Q 1375 441 1716 441 
Q 2309 441 2620 675 
Q 2931 909 2931 1356 
Q 2931 1769 2642 2001 
Q 2353 2234 1838 2234 
L 1294 2234 
L 1294 2753 
L 1863 2753 
Q 2328 2753 2575 2939 
Q 2822 3125 2822 3475 
Q 2822 3834 2567 4026 
Q 2313 4219 1838 4219 
Q 1578 4219 1281 4162 
Q 984 4106 628 3988 
L 628 4550 
Q 988 4650 1302 4700 
Q 1616 4750 1894 4750 
Q 2613 4750 3031 4423 
Q 3450 4097 3450 3541 
Q 3450 3153 3228 2886 
Q 3006 2619 2597 2516 
z
" transform="scale(0.015625)"/>
     </defs>
     <use xlink:href="#DejaVuSans-31"/>
     <use xlink:href="#DejaVuSans-33" transform="translate(63.623047 0)"/>
     <use xlink:href="#DejaVuSans-34" transform="translate(127.246094 0)"/>
     <use xlink:href="#DejaVuSans-30" transform="translate(190.869141 0)"/>
     <use xlink:href="#DejaVuSans-2e" transform="translate(254.492188 0)"/>
     <use xlink:href="#DejaVuSans-30" transform="translate(286.279297 0)"/>
     <use xlink:href="#DejaVuSans-30" transform="translate(349.902344 0)"/>
    </g>
   </g>
   <g id="text_45">
    <!-- 232.85 -->
    <g transform="translate(928.84576 260.745386) scale(0.1 -0.1)">
     <use xlink:href="#DejaVuSans-32"/>
     <use xlink:href="#DejaVuSans-33" transform="translate(63.623047 0)"/>
     <use xlink:href="#DejaVuSans-32" transform="translate(127.246094 0)"/>
     <use xlink:href="#DejaVuSans-2e" transform="translate(190.869141 0)"/>
     <use xlink:href="#DejaVuSans-38" transform="translate(222.65625 0)"/>
     <use xlink:href="#DejaVuSans-35" transform="translate(286.279297 0)"/>
    </g>
   </g>
   <g id="text_46">
    <!-- 18 improved / 1 tied / 1 worse -->
    <g transform="translate(858.505279 62.637589) scale(0.09 -0.09)">
     <defs>
      <path id="DejaVuSans-2f" d="M 1625 4666 
L 2156 4666 
L 531 -594 
L 0 -594 
L 1625 4666 
z
" transform="scale(0.015625)"/>
     </defs>
     <use xlink:href="#DejaVuSans-31"/>
     <use xlink:href="#DejaVuSans-38" transform="translate(63.623047 0)"/>
     <use xlink:href="#DejaVuSans-20" transform="translate(127.246094 0)"/>
     <use xlink:href="#DejaVuSans-69" transform="translate(159.033203 0)"/>
     <use xlink:href="#DejaVuSans-6d" transform="translate(186.816406 0)"/>
     <use xlink:href="#DejaVuSans-70" transform="translate(284.228516 0)"/>
     <use xlink:href="#DejaVuSans-72" transform="translate(347.705078 0)"/>
     <use xlink:href="#DejaVuSans-6f" transform="translate(386.568359 0)"/>
     <use xlink:href="#DejaVuSans-76" transform="translate(447.75 0)"/>
     <use xlink:href="#DejaVuSans-65" transform="translate(506.929688 0)"/>
     <use xlink:href="#DejaVuSans-64" transform="translate(568.453125 0)"/>
     <use xlink:href="#DejaVuSans-20" transform="translate(631.929688 0)"/>
     <use xlink:href="#DejaVuSans-2f" transform="translate(663.716797 0)"/>
     <use xlink:href="#DejaVuSans-20" transform="translate(697.408203 0)"/>
     <use xlink:href="#DejaVuSans-31" transform="translate(729.195312 0)"/>
     <use xlink:href="#DejaVuSans-20" transform="translate(792.818359 0)"/>
     <use xlink:href="#DejaVuSans-74" transform="translate(824.605469 0)"/>
     <use xlink:href="#DejaVuSans-69" transform="translate(863.814453 0)"/>
     <use xlink:href="#DejaVuSans-65" transform="translate(891.597656 0)"/>
     <use xlink:href="#DejaVuSans-64" transform="translate(953.121094 0)"/>
     <use xlink:href="#DejaVuSans-20" transform="translate(1016.597656 0)"/>
     <use xlink:href="#DejaVuSans-2f" transform="translate(1048.384766 0)"/>
     <use xlink:href="#DejaVuSans-20" transform="translate(1082.076172 0)"/>
     <use xlink:href="#DejaVuSans-31" transform="translate(1113.863281 0)"/>
     <use xlink:href="#DejaVuSans-20" transform="translate(1177.486328 0)"/>
     <use xlink:href="#DejaVuSans-77" transform="translate(1209.273438 0)"/>
     <use xlink:href="#DejaVuSans-6f" transform="translate(1291.060547 0)"/>
     <use xlink:href="#DejaVuSans-72" transform="translate(1352.242188 0)"/>
     <use xlink:href="#DejaVuSans-73" transform="translate(1393.355469 0)"/>
     <use xlink:href="#DejaVuSans-65" transform="translate(1445.455078 0)"/>
    </g>
    <!-- 20 selected historical failures -->
    <g transform="translate(861.902779 72.71562) scale(0.09 -0.09)">
     <use xlink:href="#DejaVuSans-32"/>
     <use xlink:href="#DejaVuSans-30" transform="translate(63.623047 0)"/>
     <use xlink:href="#DejaVuSans-20" transform="translate(127.246094 0)"/>
     <use xlink:href="#DejaVuSans-73" transform="translate(159.033203 0)"/>
     <use xlink:href="#DejaVuSans-65" transform="translate(211.132812 0)"/>
     <use xlink:href="#DejaVuSans-6c" transform="translate(272.65625 0)"/>
     <use xlink:href="#DejaVuSans-65" transform="translate(300.439453 0)"/>
     <use xlink:href="#DejaVuSans-63" transform="translate(361.962891 0)"/>
     <use xlink:href="#DejaVuSans-74" transform="translate(416.943359 0)"/>
     <use xlink:href="#DejaVuSans-65" transform="translate(456.152344 0)"/>
     <use xlink:href="#DejaVuSans-64" transform="translate(517.675781 0)"/>
     <use xlink:href="#DejaVuSans-20" transform="translate(581.152344 0)"/>
     <use xlink:href="#DejaVuSans-68" transform="translate(612.939453 0)"/>
     <use xlink:href="#DejaVuSans-69" transform="translate(676.318359 0)"/>
     <use xlink:href="#DejaVuSans-73" transform="translate(704.101562 0)"/>
     <use xlink:href="#DejaVuSans-74" transform="translate(756.201172 0)"/>
     <use xlink:href="#DejaVuSans-6f" transform="translate(795.410156 0)"/>
     <use xlink:href="#DejaVuSans-72" transform="translate(856.591797 0)"/>
     <use xlink:href="#DejaVuSans-69" transform="translate(897.705078 0)"/>
     <use xlink:href="#DejaVuSans-63" transform="translate(925.488281 0)"/>
     <use xlink:href="#DejaVuSans-61" transform="translate(980.46875 0)"/>
     <use xlink:href="#DejaVuSans-6c" transform="translate(1041.748047 0)"/>
     <use xlink:href="#DejaVuSans-20" transform="translate(1069.53125 0)"/>
     <use xlink:href="#DejaVuSans-66" transform="translate(1101.318359 0)"/>
     <use xlink:href="#DejaVuSans-61" transform="translate(1136.523438 0)"/>
     <use xlink:href="#DejaVuSans-69" transform="translate(1197.802734 0)"/>
     <use xlink:href="#DejaVuSans-6c" transform="translate(1225.585938 0)"/>
     <use xlink:href="#DejaVuSans-75" transform="translate(1253.369141 0)"/>
     <use xlink:href="#DejaVuSans-72" transform="translate(1316.748047 0)"/>
     <use xlink:href="#DejaVuSans-65" transform="translate(1355.611328 0)"/>
     <use xlink:href="#DejaVuSans-73" transform="translate(1417.134766 0)"/>
    </g>
   </g>
   <g id="text_47">
    <!-- C. Interrupted-search repair -->
    <g transform="translate(785.603903 32.118845) scale(0.12 -0.12)">
     <use xlink:href="#DejaVuSans-43"/>
     <use xlink:href="#DejaVuSans-2e" transform="translate(69.824219 0)"/>
     <use xlink:href="#DejaVuSans-20" transform="translate(101.611328 0)"/>
     <use xlink:href="#DejaVuSans-49" transform="translate(133.398438 0)"/>
     <use xlink:href="#DejaVuSans-6e" transform="translate(162.890625 0)"/>
     <use xlink:href="#DejaVuSans-74" transform="translate(226.269531 0)"/>
     <use xlink:href="#DejaVuSans-65" transform="translate(265.478516 0)"/>
     <use xlink:href="#DejaVuSans-72" transform="translate(327.001953 0)"/>
     <use xlink:href="#DejaVuSans-72" transform="translate(366.365234 0)"/>
     <use xlink:href="#DejaVuSans-75" transform="translate(407.478516 0)"/>
     <use xlink:href="#DejaVuSans-70" transform="translate(470.857422 0)"/>
     <use xlink:href="#DejaVuSans-74" transform="translate(534.333984 0)"/>
     <use xlink:href="#DejaVuSans-65" transform="translate(573.542969 0)"/>
     <use xlink:href="#DejaVuSans-64" transform="translate(635.066406 0)"/>
     <use xlink:href="#DejaVuSans-2d" transform="translate(698.542969 0)"/>
     <use xlink:href="#DejaVuSans-73" transform="translate(734.626953 0)"/>
     <use xlink:href="#DejaVuSans-65" transform="translate(786.726562 0)"/>
     <use xlink:href="#DejaVuSans-61" transform="translate(848.25 0)"/>
     <use xlink:href="#DejaVuSans-72" transform="translate(909.529297 0)"/>
     <use xlink:href="#DejaVuSans-63" transform="translate(948.392578 0)"/>
     <use xlink:href="#DejaVuSans-68" transform="translate(1003.373047 0)"/>
     <use xlink:href="#DejaVuSans-20" transform="translate(1066.751953 0)"/>
     <use xlink:href="#DejaVuSans-72" transform="translate(1098.539062 0)"/>
     <use xlink:href="#DejaVuSans-65" transform="translate(1137.402344 0)"/>
     <use xlink:href="#DejaVuSans-70" transform="translate(1198.925781 0)"/>
     <use xlink:href="#DejaVuSans-61" transform="translate(1262.402344 0)"/>
     <use xlink:href="#DejaVuSans-69" transform="translate(1323.681641 0)"/>
     <use xlink:href="#DejaVuSans-72" transform="translate(1351.464844 0)"/>
    </g>
   </g>
  </g>
  <g id="text_48">
   <!-- Shogi Search Lab v0.11 | Frozen-model controls and interruption handling -->
   <g transform="translate(245.590625 13.699302) scale(0.14 -0.14)">
    <defs>
     <path id="DejaVuSans-53" d="M 3425 4513 
L 3425 3897 
Q 3066 4069 2747 4153 
Q 2428 4238 2131 4238 
Q 1616 4238 1336 4038 
Q 1056 3838 1056 3469 
Q 1056 3159 1242 3001 
Q 1428 2844 1947 2747 
L 2328 2669 
Q 3034 2534 3370 2195 
Q 3706 1856 3706 1288 
Q 3706 609 3251 259 
Q 2797 -91 1919 -91 
Q 1588 -91 1214 -16 
Q 841 59 441 206 
L 441 856 
Q 825 641 1194 531 
Q 1563 422 1919 422 
Q 2459 422 2753 634 
Q 3047 847 3047 1241 
Q 3047 1584 2836 1778 
Q 2625 1972 2144 2069 
L 1759 2144 
Q 1053 2284 737 2584 
Q 422 2884 422 3419 
Q 422 4038 858 4394 
Q 1294 4750 2059 4750 
Q 2388 4750 2728 4690 
Q 3069 4631 3425 4513 
z
" transform="scale(0.015625)"/>
     <path id="DejaVuSans-7c" d="M 1344 4891 
L 1344 -1509 
L 813 -1509 
L 813 4891 
L 1344 4891 
z
" transform="scale(0.015625)"/>
     <path id="DejaVuSans-7a" d="M 353 3500 
L 3084 3500 
L 3084 2975 
L 922 459 
L 3084 459 
L 3084 0 
L 275 0 
L 275 525 
L 2438 3041 
L 353 3041 
L 353 3500 
z
" transform="scale(0.015625)"/>
    </defs>
    <use xlink:href="#DejaVuSans-53"/>
    <use xlink:href="#DejaVuSans-68" transform="translate(63.476562 0)"/>
    <use xlink:href="#DejaVuSans-6f" transform="translate(126.855469 0)"/>
    <use xlink:href="#DejaVuSans-67" transform="translate(188.037109 0)"/>
    <use xlink:href="#DejaVuSans-69" transform="translate(251.513672 0)"/>
    <use xlink:href="#DejaVuSans-20" transform="translate(279.296875 0)"/>
    <use xlink:href="#DejaVuSans-53" transform="translate(311.083984 0)"/>
    <use xlink:href="#DejaVuSans-65" transform="translate(374.560547 0)"/>
    <use xlink:href="#DejaVuSans-61" transform="translate(436.083984 0)"/>
    <use xlink:href="#DejaVuSans-72" transform="translate(497.363281 0)"/>
    <use xlink:href="#DejaVuSans-63" transform="translate(536.226562 0)"/>
    <use xlink:href="#DejaVuSans-68" transform="translate(591.207031 0)"/>
    <use xlink:href="#DejaVuSans-20" transform="translate(654.585938 0)"/>
    <use xlink:href="#DejaVuSans-4c" transform="translate(686.373047 0)"/>
    <use xlink:href="#DejaVuSans-61" transform="translate(742.085938 0)"/>
    <use xlink:href="#DejaVuSans-62" transform="translate(803.365234 0)"/>
    <use xlink:href="#DejaVuSans-20" transform="translate(866.841797 0)"/>
    <use xlink:href="#DejaVuSans-76" transform="translate(898.628906 0)"/>
    <use xlink:href="#DejaVuSans-30" transform="translate(957.808594 0)"/>
    <use xlink:href="#DejaVuSans-2e" transform="translate(1021.431641 0)"/>
    <use xlink:href="#DejaVuSans-31" transform="translate(1053.21875 0)"/>
    <use xlink:href="#DejaVuSans-31" transform="translate(1116.841797 0)"/>
    <use xlink:href="#DejaVuSans-20" transform="translate(1180.464844 0)"/>
    <use xlink:href="#DejaVuSans-7c" transform="translate(1212.251953 0)"/>
    <use xlink:href="#DejaVuSans-20" transform="translate(1245.943359 0)"/>
    <use xlink:href="#DejaVuSans-46" transform="translate(1277.730469 0)"/>
    <use xlink:href="#DejaVuSans-72" transform="translate(1328 0)"/>
    <use xlink:href="#DejaVuSans-6f" transform="translate(1366.863281 0)"/>
    <use xlink:href="#DejaVuSans-7a" transform="translate(1428.044922 0)"/>
    <use xlink:href="#DejaVuSans-65" transform="translate(1480.535156 0)"/>
    <use xlink:href="#DejaVuSans-6e" transform="translate(1542.058594 0)"/>
    <use xlink:href="#DejaVuSans-2d" transform="translate(1605.4375 0)"/>
    <use xlink:href="#DejaVuSans-6d" transform="translate(1641.521484 0)"/>
    <use xlink:href="#DejaVuSans-6f" transform="translate(1738.933594 0)"/>
    <use xlink:href="#DejaVuSans-64" transform="translate(1800.115234 0)"/>
    <use xlink:href="#DejaVuSans-65" transform="translate(1863.591797 0)"/>
    <use xlink:href="#DejaVuSans-6c" transform="translate(1925.115234 0)"/>
    <use xlink:href="#DejaVuSans-20" transform="translate(1952.898438 0)"/>
    <use xlink:href="#DejaVuSans-63" transform="translate(1984.685547 0)"/>
    <use xlink:href="#DejaVuSans-6f" transform="translate(2039.666016 0)"/>
    <use xlink:href="#DejaVuSans-6e" transform="translate(2100.847656 0)"/>
    <use xlink:href="#DejaVuSans-74" transform="translate(2164.226562 0)"/>
    <use xlink:href="#DejaVuSans-72" transform="translate(2203.435547 0)"/>
    <use xlink:href="#DejaVuSans-6f" transform="translate(2242.298828 0)"/>
    <use xlink:href="#DejaVuSans-6c" transform="translate(2303.480469 0)"/>
    <use xlink:href="#DejaVuSans-73" transform="translate(2331.263672 0)"/>
    <use xlink:href="#DejaVuSans-20" transform="translate(2383.363281 0)"/>
    <use xlink:href="#DejaVuSans-61" transform="translate(2415.150391 0)"/>
    <use xlink:href="#DejaVuSans-6e" transform="translate(2476.429688 0)"/>
    <use xlink:href="#DejaVuSans-64" transform="translate(2539.808594 0)"/>
    <use xlink:href="#DejaVuSans-20" transform="translate(2603.285156 0)"/>
    <use xlink:href="#DejaVuSans-69" transform="translate(2635.072266 0)"/>
    <use xlink:href="#DejaVuSans-6e" transform="translate(2662.855469 0)"/>
    <use xlink:href="#DejaVuSans-74" transform="translate(2726.234375 0)"/>
    <use xlink:href="#DejaVuSans-65" transform="translate(2765.443359 0)"/>
    <use xlink:href="#DejaVuSans-72" transform="translate(2826.966797 0)"/>
    <use xlink:href="#DejaVuSans-72" transform="translate(2866.330078 0)"/>
    <use xlink:href="#DejaVuSans-75" transform="translate(2907.443359 0)"/>
    <use xlink:href="#DejaVuSans-70" transform="translate(2970.822266 0)"/>
    <use xlink:href="#DejaVuSans-74" transform="translate(3034.298828 0)"/>
    <use xlink:href="#DejaVuSans-69" transform="translate(3073.507812 0)"/>
    <use xlink:href="#DejaVuSans-6f" transform="translate(3101.291016 0)"/>
    <use xlink:href="#DejaVuSans-6e" transform="translate(3162.472656 0)"/>
    <use xlink:href="#DejaVuSans-20" transform="translate(3225.851562 0)"/>
    <use xlink:href="#DejaVuSans-68" transform="translate(3257.638672 0)"/>
    <use xlink:href="#DejaVuSans-61" transform="translate(3321.017578 0)"/>
    <use xlink:href="#DejaVuSans-6e" transform="translate(3382.296875 0)"/>
    <use xlink:href="#DejaVuSans-64" transform="translate(3445.675781 0)"/>
    <use xlink:href="#DejaVuSans-6c" transform="translate(3509.152344 0)"/>
    <use xlink:href="#DejaVuSans-69" transform="translate(3536.935547 0)"/>
    <use xlink:href="#DejaVuSans-6e" transform="translate(3564.71875 0)"/>
    <use xlink:href="#DejaVuSans-67" transform="translate(3628.097656 0)"/>
   </g>
  </g>
 </g>
 <defs>
  <clipPath id="pf81daa0c0c">
   <rect x="49.128365" y="38.118845" width="271.68234" height="266.12904"/>
  </clipPath>
  <clipPath id="p7de093912b">
   <rect x="408.786955" y="38.118845" width="271.68234" height="266.12904"/>
  </clipPath>
  <clipPath id="pce281b7087">
   <rect x="733.31742" y="38.118845" width="271.68234" height="266.12904"/>
  </clipPath>
 </defs>
</svg>
